M48
INCH,TZ
T1C0.020
T2C0.030
T3C0.039
T4C0.040
T5C0.043
T6C0.043
T7C0.059
T8C0.067
%
G90
G05
T1
X10500Y-1000
X10500Y-2250
X11000Y-750
X11000Y-2250
X23500Y-30334
X23500Y-31250
X32500Y-36000
X45250Y-35000
X45250Y-35750
X46500Y-30000
X46500Y-31500
X47000Y-18500
X47000Y-20000
X47000Y-29500
X47000Y-31000
X47250Y-35000
X47250Y-35750
X47500Y-18000
X47500Y-19500
X47500Y-29250
X47500Y-30500
T2
X7244Y-1927
X7559Y-1455
X7874Y-1927
X8189Y-1455
X8504Y-1927
X27067Y-33732
X27567Y-32866
X28067Y-32000
X28567Y-31134
X29067Y-30268
T3
X2043Y-8355
X2043Y-9355
X2043Y-15855
X2043Y-16855
X2043Y-23355
X2043Y-24355
X2043Y-30855
X2043Y-31855
X5043Y-8355
X5043Y-9355
X5043Y-15855
X5043Y-16855
X5043Y-23355
X5043Y-24355
X5043Y-30855
X5043Y-31855
X11417Y-8354
X11417Y-9354
X11417Y-15855
X11417Y-16855
X11417Y-23355
X11417Y-24355
X11417Y-30855
X11417Y-31855
X14417Y-8354
X14417Y-9354
X14417Y-15855
X14417Y-16855
X14417Y-23355
X14417Y-24355
X14417Y-30855
X14417Y-31855
X18917Y-6480
X18917Y-7480
X18917Y-13980
X18917Y-14980
X18917Y-21480
X18917Y-22480
X18917Y-28980
X18917Y-29980
X21917Y-6480
X21917Y-7480
X21917Y-13980
X21917Y-14980
X21917Y-21480
X21917Y-22480
X21917Y-28980
X21917Y-29980
X26417Y-5543
X26417Y-6543
X26417Y-13039
X26417Y-14039
X26417Y-20539
X26417Y-21539
X26417Y-28039
X26417Y-29039
X29417Y-5543
X29417Y-6543
X29417Y-13039
X29417Y-14039
X29417Y-20539
X29417Y-21539
X29417Y-28039
X29417Y-29039
X33917Y-6480
X33917Y-7480
X33917Y-13980
X33917Y-14980
X33917Y-21480
X33917Y-22480
X33917Y-28980
X33917Y-29980
X36917Y-6480
X36917Y-7480
X36917Y-13980
X36917Y-14980
X36917Y-21480
X36917Y-22480
X36917Y-28980
X36917Y-29980
X41417Y-7417
X41417Y-8417
X41417Y-14917
X41417Y-15917
X41417Y-29917
X41417Y-30917
X41453Y-22417
X41453Y-23417
X44417Y-7417
X44417Y-8417
X44417Y-14917
X44417Y-15917
X44417Y-29917
X44417Y-30917
X44453Y-22417
X44453Y-23417
X47147Y-42336
X48013Y-42836
X48647Y-39738
X48917Y-7417
X48917Y-8417
X48917Y-16793
X48917Y-17793
X48917Y-28043
X48917Y-29043
X49513Y-40238
X51917Y-7417
X51917Y-8417
X51917Y-16793
X51917Y-17793
X51917Y-28043
X51917Y-29043
X53642Y-46086
X54508Y-46586
X55142Y-43488
X56008Y-43988
T4
X52500Y-20250
X52500Y-21250
X52500Y-22250
T5
X32737Y-33652
T6
X29737Y-38848
X30603Y-39348
X31469Y-39848
X32335Y-40348
X33201Y-40848
X33603Y-34152
X34067Y-41348
X34469Y-34652
X34933Y-41848
X35335Y-35152
X35799Y-42348
X36201Y-35652
X36665Y-42848
X37067Y-36152
X37531Y-43348
X37933Y-36652
X38397Y-43848
X38799Y-37152
X39263Y-44348
X39665Y-37652
X40531Y-38152
X41397Y-38652
X42263Y-39152
T7
X2043Y-5355
X2043Y-12855
X2043Y-20355
X2043Y-27855
X2543Y-4355
X2543Y-11855
X2543Y-19355
X2543Y-26855
X4543Y-4355
X4543Y-11855
X4543Y-19355
X4543Y-26855
X5043Y-5355
X5043Y-12855
X5043Y-20355
X5043Y-27855
X11417Y-5354
X11417Y-12855
X11417Y-20355
X11417Y-27855
X11917Y-4354
X11917Y-11855
X11917Y-19355
X11917Y-26855
X13917Y-4354
X13917Y-11855
X13917Y-19355
X13917Y-26855
X14417Y-5354
X14417Y-12855
X14417Y-20355
X14417Y-27855
X18917Y-3480
X18917Y-10980
X18917Y-18480
X18917Y-25980
X19417Y-2480
X19417Y-9980
X19417Y-17480
X19417Y-24980
X21417Y-2480
X21417Y-9980
X21417Y-17480
X21417Y-24980
X21917Y-3480
X21917Y-10980
X21917Y-18480
X21917Y-25980
X26417Y-2543
X26417Y-10039
X26417Y-17539
X26417Y-25039
X26917Y-1543
X26917Y-9039
X26917Y-16539
X26917Y-24039
X28917Y-1543
X28917Y-9039
X28917Y-16539
X28917Y-24039
X29417Y-2543
X29417Y-10039
X29417Y-17539
X29417Y-25039
X33917Y-3480
X33917Y-10980
X33917Y-18480
X33917Y-25980
X34417Y-2480
X34417Y-9980
X34417Y-17480
X34417Y-24980
X36417Y-2480
X36417Y-9980
X36417Y-17480
X36417Y-24980
X36917Y-3480
X36917Y-10980
X36917Y-18480
X36917Y-25980
X41417Y-4417
X41417Y-11917
X41417Y-26917
X41453Y-19417
X41917Y-3417
X41917Y-10917
X41917Y-25917
X41953Y-18417
X43917Y-3417
X43917Y-10917
X43917Y-25917
X43933Y-39903
X43953Y-18417
X44417Y-4417
X44417Y-11917
X44417Y-26917
X44453Y-19417
X44549Y-40836
X44933Y-38171
X46049Y-38238
X48917Y-4417
X48917Y-13793
X48917Y-25043
X49417Y-3417
X49417Y-12793
X49417Y-24043
X50428Y-43653
X51044Y-44586
X51417Y-3417
X51417Y-12793
X51417Y-24043
X51428Y-41921
X51917Y-4417
X51917Y-13793
X51917Y-25043
X52544Y-41988
T8
X1543Y-6355
X1543Y-13855
X1543Y-21355
X1543Y-28855
X5543Y-6355
X5543Y-13855
X5543Y-21355
X5543Y-28855
X10917Y-6354
X10917Y-13855
X10917Y-21355
X10917Y-28855
X14917Y-6354
X14917Y-13855
X14917Y-21355
X14917Y-28855
X18417Y-4480
X18417Y-11980
X18417Y-19480
X18417Y-26980
X22417Y-4480
X22417Y-11980
X22417Y-19480
X22417Y-26980
X25917Y-3543
X25917Y-11039
X25917Y-18539
X25917Y-26039
X29917Y-3543
X29917Y-11039
X29917Y-18539
X29917Y-26039
X33417Y-4480
X33417Y-11980
X33417Y-19480
X33417Y-26980
X37417Y-4480
X37417Y-11980
X37417Y-19480
X37417Y-26980
X40917Y-5417
X40917Y-12917
X40917Y-27917
X40953Y-20417
X44917Y-5417
X44917Y-12917
X44917Y-27917
X44953Y-20417
X45165Y-41769
X47165Y-38305
X48417Y-5417
X48417Y-14793
X48417Y-26043
X51660Y-45519
X52417Y-5417
X52417Y-14793
X52417Y-26043
X53660Y-42055
T2
X6438Y286G85X6438Y-164
G05
X9310Y286G85X9310Y-164
G05
T0
M30
