G04 #@! TF.FileFunction,Legend,Bot*
%FSLAX46Y46*%
G04 Gerber Fmt 4.6, Leading zero omitted, Abs format (unit mm)*
G04 Created by KiCad (PCBNEW 4.0.2-4+6225~38~ubuntu14.04.1-stable) date ma 18 apr 2016 22:17:21 CEST*
%MOMM*%
G01*
G04 APERTURE LIST*
%ADD10C,0.100000*%
%ADD11C,0.150000*%
%ADD12C,0.381000*%
%ADD13C,0.203200*%
%ADD14C,0.254000*%
G04 APERTURE END LIST*
D10*
D11*
X126610000Y-53755000D02*
X123010000Y-53755000D01*
X126610000Y-51655000D02*
X123010000Y-51655000D01*
X124560000Y-52405000D02*
X124560000Y-53005000D01*
X124560000Y-53005000D02*
X124860000Y-52705000D01*
X124860000Y-52705000D02*
X124660000Y-52505000D01*
X124660000Y-52505000D02*
X124660000Y-52755000D01*
X124660000Y-52755000D02*
X124710000Y-52705000D01*
X124960000Y-52205000D02*
X124960000Y-53205000D01*
X124460000Y-52705000D02*
X123960000Y-52705000D01*
X124960000Y-52705000D02*
X124460000Y-52205000D01*
X124460000Y-52205000D02*
X124460000Y-53205000D01*
X124460000Y-53205000D02*
X124960000Y-52705000D01*
X117695000Y-12310000D02*
X117695000Y-8710000D01*
X119795000Y-12310000D02*
X119795000Y-8710000D01*
X119045000Y-10260000D02*
X118445000Y-10260000D01*
X118445000Y-10260000D02*
X118745000Y-10560000D01*
X118745000Y-10560000D02*
X118945000Y-10360000D01*
X118945000Y-10360000D02*
X118695000Y-10360000D01*
X118695000Y-10360000D02*
X118745000Y-10410000D01*
X119245000Y-10660000D02*
X118245000Y-10660000D01*
X118745000Y-10160000D02*
X118745000Y-9660000D01*
X118745000Y-10660000D02*
X119245000Y-10160000D01*
X119245000Y-10160000D02*
X118245000Y-10160000D01*
X118245000Y-10160000D02*
X118745000Y-10660000D01*
X79595000Y-12310000D02*
X79595000Y-8710000D01*
X81695000Y-12310000D02*
X81695000Y-8710000D01*
X80945000Y-10260000D02*
X80345000Y-10260000D01*
X80345000Y-10260000D02*
X80645000Y-10560000D01*
X80645000Y-10560000D02*
X80845000Y-10360000D01*
X80845000Y-10360000D02*
X80595000Y-10360000D01*
X80595000Y-10360000D02*
X80645000Y-10410000D01*
X81145000Y-10660000D02*
X80145000Y-10660000D01*
X80645000Y-10160000D02*
X80645000Y-9660000D01*
X80645000Y-10660000D02*
X81145000Y-10160000D01*
X81145000Y-10160000D02*
X80145000Y-10160000D01*
X80145000Y-10160000D02*
X80645000Y-10660000D01*
X127714327Y-105978045D02*
X125914327Y-109095737D01*
X125895673Y-104928045D02*
X124095673Y-108045737D01*
X125520192Y-107078397D02*
X126039808Y-107378397D01*
X126039808Y-107378397D02*
X125930000Y-106968590D01*
X125930000Y-106968590D02*
X125656795Y-107041795D01*
X125656795Y-107041795D02*
X125873301Y-107166795D01*
X125873301Y-107166795D02*
X125855000Y-107098494D01*
X125546987Y-106631987D02*
X126413013Y-107131987D01*
X125730000Y-107315000D02*
X125480000Y-107748013D01*
X125980000Y-106881987D02*
X125296987Y-107065000D01*
X125296987Y-107065000D02*
X126163013Y-107565000D01*
X126163013Y-107565000D02*
X125980000Y-106881987D01*
X21175000Y-23105000D02*
X21175000Y-19505000D01*
X23275000Y-23105000D02*
X23275000Y-19505000D01*
X22525000Y-21055000D02*
X21925000Y-21055000D01*
X21925000Y-21055000D02*
X22225000Y-21355000D01*
X22225000Y-21355000D02*
X22425000Y-21155000D01*
X22425000Y-21155000D02*
X22175000Y-21155000D01*
X22175000Y-21155000D02*
X22225000Y-21205000D01*
X22725000Y-21455000D02*
X21725000Y-21455000D01*
X22225000Y-20955000D02*
X22225000Y-20455000D01*
X22225000Y-21455000D02*
X22725000Y-20955000D01*
X22725000Y-20955000D02*
X21725000Y-20955000D01*
X21725000Y-20955000D02*
X22225000Y-21455000D01*
X21370000Y-64525000D02*
X21370000Y-68125000D01*
X19270000Y-64525000D02*
X19270000Y-68125000D01*
X20020000Y-66575000D02*
X20620000Y-66575000D01*
X20620000Y-66575000D02*
X20320000Y-66275000D01*
X20320000Y-66275000D02*
X20120000Y-66475000D01*
X20120000Y-66475000D02*
X20370000Y-66475000D01*
X20370000Y-66475000D02*
X20320000Y-66425000D01*
X19820000Y-66175000D02*
X20820000Y-66175000D01*
X20320000Y-66675000D02*
X20320000Y-67175000D01*
X20320000Y-66175000D02*
X19820000Y-66675000D01*
X19820000Y-66675000D02*
X20820000Y-66675000D01*
X20820000Y-66675000D02*
X20320000Y-66175000D01*
X57070673Y-83886955D02*
X58870673Y-80769263D01*
X58889327Y-84936955D02*
X60689327Y-81819263D01*
X59264808Y-82786603D02*
X58745192Y-82486603D01*
X58745192Y-82486603D02*
X58855000Y-82896410D01*
X58855000Y-82896410D02*
X59128205Y-82823205D01*
X59128205Y-82823205D02*
X58911699Y-82698205D01*
X58911699Y-82698205D02*
X58930000Y-82766506D01*
X59238013Y-83233013D02*
X58371987Y-82733013D01*
X59055000Y-82550000D02*
X59305000Y-82116987D01*
X58805000Y-82983013D02*
X59488013Y-82800000D01*
X59488013Y-82800000D02*
X58621987Y-82300000D01*
X58621987Y-82300000D02*
X58805000Y-82983013D01*
X76971773Y-93639705D02*
X79171477Y-94909705D01*
X79171477Y-94909705D02*
X81711477Y-90510295D01*
X81711477Y-90510295D02*
X79511773Y-89240295D01*
X79511773Y-89240295D02*
X76971773Y-93639705D01*
X75996477Y-100408966D02*
X77266477Y-98209261D01*
X77266477Y-98209261D02*
X79466182Y-99479261D01*
X79466182Y-99479261D02*
X78196182Y-101678966D01*
D12*
X73796773Y-99138966D02*
X82686773Y-83741034D01*
X82686773Y-83741034D02*
X109083227Y-98981034D01*
X109083227Y-98981034D02*
X100193227Y-114378966D01*
X100193227Y-114378966D02*
X73796773Y-99138966D01*
X2648000Y-9791000D02*
X4426000Y-9791000D01*
X13570000Y-9791000D02*
X15348000Y-9791000D01*
X15348000Y-9791000D02*
X15348000Y-11569000D01*
X15348000Y-20713000D02*
X15348000Y-22491000D01*
X15348000Y-22491000D02*
X13570000Y-22491000D01*
X4426000Y-22491000D02*
X2648000Y-22491000D01*
X2648000Y-22491000D02*
X2648000Y-20713000D01*
X2648000Y-11569000D02*
X2648000Y-9791000D01*
X26460000Y-9790000D02*
X28238000Y-9790000D01*
X37382000Y-9790000D02*
X39160000Y-9790000D01*
X39160000Y-9790000D02*
X39160000Y-11568000D01*
X39160000Y-20712000D02*
X39160000Y-22490000D01*
X39160000Y-22490000D02*
X37382000Y-22490000D01*
X28238000Y-22490000D02*
X26460000Y-22490000D01*
X26460000Y-22490000D02*
X26460000Y-20712000D01*
X26460000Y-11568000D02*
X26460000Y-9790000D01*
X45510000Y-5029000D02*
X47288000Y-5029000D01*
X56432000Y-5029000D02*
X58210000Y-5029000D01*
X58210000Y-5029000D02*
X58210000Y-6807000D01*
X58210000Y-15951000D02*
X58210000Y-17729000D01*
X58210000Y-17729000D02*
X56432000Y-17729000D01*
X47288000Y-17729000D02*
X45510000Y-17729000D01*
X45510000Y-17729000D02*
X45510000Y-15951000D01*
X45510000Y-6807000D02*
X45510000Y-5029000D01*
X64560000Y-2648000D02*
X66338000Y-2648000D01*
X75482000Y-2648000D02*
X77260000Y-2648000D01*
X77260000Y-2648000D02*
X77260000Y-4426000D01*
X77260000Y-13570000D02*
X77260000Y-15348000D01*
X77260000Y-15348000D02*
X75482000Y-15348000D01*
X66338000Y-15348000D02*
X64560000Y-15348000D01*
X64560000Y-15348000D02*
X64560000Y-13570000D01*
X64560000Y-4426000D02*
X64560000Y-2648000D01*
X83610000Y-5029000D02*
X85388000Y-5029000D01*
X94532000Y-5029000D02*
X96310000Y-5029000D01*
X96310000Y-5029000D02*
X96310000Y-6807000D01*
X96310000Y-15951000D02*
X96310000Y-17729000D01*
X96310000Y-17729000D02*
X94532000Y-17729000D01*
X85388000Y-17729000D02*
X83610000Y-17729000D01*
X83610000Y-17729000D02*
X83610000Y-15951000D01*
X83610000Y-6807000D02*
X83610000Y-5029000D01*
X102660000Y-7410000D02*
X104438000Y-7410000D01*
X113582000Y-7410000D02*
X115360000Y-7410000D01*
X115360000Y-7410000D02*
X115360000Y-9188000D01*
X115360000Y-18332000D02*
X115360000Y-20110000D01*
X115360000Y-20110000D02*
X113582000Y-20110000D01*
X104438000Y-20110000D02*
X102660000Y-20110000D01*
X102660000Y-20110000D02*
X102660000Y-18332000D01*
X102660000Y-9188000D02*
X102660000Y-7410000D01*
X121710000Y-7410000D02*
X123488000Y-7410000D01*
X132632000Y-7410000D02*
X134410000Y-7410000D01*
X134410000Y-7410000D02*
X134410000Y-9188000D01*
X134410000Y-18332000D02*
X134410000Y-20110000D01*
X134410000Y-20110000D02*
X132632000Y-20110000D01*
X123488000Y-20110000D02*
X121710000Y-20110000D01*
X121710000Y-20110000D02*
X121710000Y-18332000D01*
X121710000Y-9188000D02*
X121710000Y-7410000D01*
X2648000Y-28841000D02*
X4426000Y-28841000D01*
X13570000Y-28841000D02*
X15348000Y-28841000D01*
X15348000Y-28841000D02*
X15348000Y-30619000D01*
X15348000Y-39763000D02*
X15348000Y-41541000D01*
X15348000Y-41541000D02*
X13570000Y-41541000D01*
X4426000Y-41541000D02*
X2648000Y-41541000D01*
X2648000Y-41541000D02*
X2648000Y-39763000D01*
X2648000Y-30619000D02*
X2648000Y-28841000D01*
X26460000Y-28841000D02*
X28238000Y-28841000D01*
X37382000Y-28841000D02*
X39160000Y-28841000D01*
X39160000Y-28841000D02*
X39160000Y-30619000D01*
X39160000Y-39763000D02*
X39160000Y-41541000D01*
X39160000Y-41541000D02*
X37382000Y-41541000D01*
X28238000Y-41541000D02*
X26460000Y-41541000D01*
X26460000Y-41541000D02*
X26460000Y-39763000D01*
X26460000Y-30619000D02*
X26460000Y-28841000D01*
X45510000Y-24079000D02*
X47288000Y-24079000D01*
X56432000Y-24079000D02*
X58210000Y-24079000D01*
X58210000Y-24079000D02*
X58210000Y-25857000D01*
X58210000Y-35001000D02*
X58210000Y-36779000D01*
X58210000Y-36779000D02*
X56432000Y-36779000D01*
X47288000Y-36779000D02*
X45510000Y-36779000D01*
X45510000Y-36779000D02*
X45510000Y-35001000D01*
X45510000Y-25857000D02*
X45510000Y-24079000D01*
X64560000Y-21688000D02*
X66338000Y-21688000D01*
X75482000Y-21688000D02*
X77260000Y-21688000D01*
X77260000Y-21688000D02*
X77260000Y-23466000D01*
X77260000Y-32610000D02*
X77260000Y-34388000D01*
X77260000Y-34388000D02*
X75482000Y-34388000D01*
X66338000Y-34388000D02*
X64560000Y-34388000D01*
X64560000Y-34388000D02*
X64560000Y-32610000D01*
X64560000Y-23466000D02*
X64560000Y-21688000D01*
X83610000Y-24079000D02*
X85388000Y-24079000D01*
X94532000Y-24079000D02*
X96310000Y-24079000D01*
X96310000Y-24079000D02*
X96310000Y-25857000D01*
X96310000Y-35001000D02*
X96310000Y-36779000D01*
X96310000Y-36779000D02*
X94532000Y-36779000D01*
X85388000Y-36779000D02*
X83610000Y-36779000D01*
X83610000Y-36779000D02*
X83610000Y-35001000D01*
X83610000Y-25857000D02*
X83610000Y-24079000D01*
X102660000Y-26460000D02*
X104438000Y-26460000D01*
X113582000Y-26460000D02*
X115360000Y-26460000D01*
X115360000Y-26460000D02*
X115360000Y-28238000D01*
X115360000Y-37382000D02*
X115360000Y-39160000D01*
X115360000Y-39160000D02*
X113582000Y-39160000D01*
X104438000Y-39160000D02*
X102660000Y-39160000D01*
X102660000Y-39160000D02*
X102660000Y-37382000D01*
X102660000Y-28238000D02*
X102660000Y-26460000D01*
X2648000Y-47891000D02*
X4426000Y-47891000D01*
X13570000Y-47891000D02*
X15348000Y-47891000D01*
X15348000Y-47891000D02*
X15348000Y-49669000D01*
X15348000Y-58813000D02*
X15348000Y-60591000D01*
X15348000Y-60591000D02*
X13570000Y-60591000D01*
X4426000Y-60591000D02*
X2648000Y-60591000D01*
X2648000Y-60591000D02*
X2648000Y-58813000D01*
X2648000Y-49669000D02*
X2648000Y-47891000D01*
X26460000Y-47891000D02*
X28238000Y-47891000D01*
X37382000Y-47891000D02*
X39160000Y-47891000D01*
X39160000Y-47891000D02*
X39160000Y-49669000D01*
X39160000Y-58813000D02*
X39160000Y-60591000D01*
X39160000Y-60591000D02*
X37382000Y-60591000D01*
X28238000Y-60591000D02*
X26460000Y-60591000D01*
X26460000Y-60591000D02*
X26460000Y-58813000D01*
X26460000Y-49669000D02*
X26460000Y-47891000D01*
X45510000Y-43129000D02*
X47288000Y-43129000D01*
X56432000Y-43129000D02*
X58210000Y-43129000D01*
X58210000Y-43129000D02*
X58210000Y-44907000D01*
X58210000Y-54051000D02*
X58210000Y-55829000D01*
X58210000Y-55829000D02*
X56432000Y-55829000D01*
X47288000Y-55829000D02*
X45510000Y-55829000D01*
X45510000Y-55829000D02*
X45510000Y-54051000D01*
X45510000Y-44907000D02*
X45510000Y-43129000D01*
X64560000Y-40738000D02*
X66338000Y-40738000D01*
X75482000Y-40738000D02*
X77260000Y-40738000D01*
X77260000Y-40738000D02*
X77260000Y-42516000D01*
X77260000Y-51660000D02*
X77260000Y-53438000D01*
X77260000Y-53438000D02*
X75482000Y-53438000D01*
X66338000Y-53438000D02*
X64560000Y-53438000D01*
X64560000Y-53438000D02*
X64560000Y-51660000D01*
X64560000Y-42516000D02*
X64560000Y-40738000D01*
X83610000Y-43129000D02*
X85388000Y-43129000D01*
X94532000Y-43129000D02*
X96310000Y-43129000D01*
X96310000Y-43129000D02*
X96310000Y-44907000D01*
X96310000Y-54051000D02*
X96310000Y-55829000D01*
X96310000Y-55829000D02*
X94532000Y-55829000D01*
X85388000Y-55829000D02*
X83610000Y-55829000D01*
X83610000Y-55829000D02*
X83610000Y-54051000D01*
X83610000Y-44907000D02*
X83610000Y-43129000D01*
X102751000Y-45510000D02*
X104529000Y-45510000D01*
X113673000Y-45510000D02*
X115451000Y-45510000D01*
X115451000Y-45510000D02*
X115451000Y-47288000D01*
X115451000Y-56432000D02*
X115451000Y-58210000D01*
X115451000Y-58210000D02*
X113673000Y-58210000D01*
X104529000Y-58210000D02*
X102751000Y-58210000D01*
X102751000Y-58210000D02*
X102751000Y-56432000D01*
X102751000Y-47288000D02*
X102751000Y-45510000D01*
X121710000Y-31223000D02*
X123488000Y-31223000D01*
X132632000Y-31223000D02*
X134410000Y-31223000D01*
X134410000Y-31223000D02*
X134410000Y-33001000D01*
X134410000Y-42145000D02*
X134410000Y-43923000D01*
X134410000Y-43923000D02*
X132632000Y-43923000D01*
X123488000Y-43923000D02*
X121710000Y-43923000D01*
X121710000Y-43923000D02*
X121710000Y-42145000D01*
X121710000Y-33001000D02*
X121710000Y-31223000D01*
X2648000Y-66941000D02*
X4426000Y-66941000D01*
X13570000Y-66941000D02*
X15348000Y-66941000D01*
X15348000Y-66941000D02*
X15348000Y-68719000D01*
X15348000Y-77863000D02*
X15348000Y-79641000D01*
X15348000Y-79641000D02*
X13570000Y-79641000D01*
X4426000Y-79641000D02*
X2648000Y-79641000D01*
X2648000Y-79641000D02*
X2648000Y-77863000D01*
X2648000Y-68719000D02*
X2648000Y-66941000D01*
X26460000Y-66941000D02*
X28238000Y-66941000D01*
X37382000Y-66941000D02*
X39160000Y-66941000D01*
X39160000Y-66941000D02*
X39160000Y-68719000D01*
X39160000Y-77863000D02*
X39160000Y-79641000D01*
X39160000Y-79641000D02*
X37382000Y-79641000D01*
X28238000Y-79641000D02*
X26460000Y-79641000D01*
X26460000Y-79641000D02*
X26460000Y-77863000D01*
X26460000Y-68719000D02*
X26460000Y-66941000D01*
X45510000Y-62179000D02*
X47288000Y-62179000D01*
X56432000Y-62179000D02*
X58210000Y-62179000D01*
X58210000Y-62179000D02*
X58210000Y-63957000D01*
X58210000Y-73101000D02*
X58210000Y-74879000D01*
X58210000Y-74879000D02*
X56432000Y-74879000D01*
X47288000Y-74879000D02*
X45510000Y-74879000D01*
X45510000Y-74879000D02*
X45510000Y-73101000D01*
X45510000Y-63957000D02*
X45510000Y-62179000D01*
X64560000Y-59788000D02*
X66338000Y-59788000D01*
X75482000Y-59788000D02*
X77260000Y-59788000D01*
X77260000Y-59788000D02*
X77260000Y-61566000D01*
X77260000Y-70710000D02*
X77260000Y-72488000D01*
X77260000Y-72488000D02*
X75482000Y-72488000D01*
X66338000Y-72488000D02*
X64560000Y-72488000D01*
X64560000Y-72488000D02*
X64560000Y-70710000D01*
X64560000Y-61566000D02*
X64560000Y-59788000D01*
X83610000Y-62179000D02*
X85388000Y-62179000D01*
X94532000Y-62179000D02*
X96310000Y-62179000D01*
X96310000Y-62179000D02*
X96310000Y-63957000D01*
X96310000Y-73101000D02*
X96310000Y-74879000D01*
X96310000Y-74879000D02*
X94532000Y-74879000D01*
X85388000Y-74879000D02*
X83610000Y-74879000D01*
X83610000Y-74879000D02*
X83610000Y-73101000D01*
X83610000Y-63957000D02*
X83610000Y-62179000D01*
X102660000Y-64560000D02*
X104438000Y-64560000D01*
X113582000Y-64560000D02*
X115360000Y-64560000D01*
X115360000Y-64560000D02*
X115360000Y-66338000D01*
X115360000Y-75482000D02*
X115360000Y-77260000D01*
X115360000Y-77260000D02*
X113582000Y-77260000D01*
X104438000Y-77260000D02*
X102660000Y-77260000D01*
X102660000Y-77260000D02*
X102660000Y-75482000D01*
X102660000Y-66338000D02*
X102660000Y-64560000D01*
X121710000Y-59798000D02*
X123488000Y-59798000D01*
X132632000Y-59798000D02*
X134410000Y-59798000D01*
X134410000Y-59798000D02*
X134410000Y-61576000D01*
X134410000Y-70720000D02*
X134410000Y-72498000D01*
X134410000Y-72498000D02*
X132632000Y-72498000D01*
X123488000Y-72498000D02*
X121710000Y-72498000D01*
X121710000Y-72498000D02*
X121710000Y-70720000D01*
X121710000Y-61576000D02*
X121710000Y-59798000D01*
X108584739Y-104019261D02*
X109473739Y-102479468D01*
X114045739Y-94560532D02*
X114934739Y-93020739D01*
X114934739Y-93020739D02*
X116474532Y-93909739D01*
X124393468Y-98481739D02*
X125933261Y-99370739D01*
X125933261Y-99370739D02*
X125044261Y-100910532D01*
X120472261Y-108829468D02*
X119583261Y-110369261D01*
X119583261Y-110369261D02*
X118043468Y-109480261D01*
X110124532Y-104908261D02*
X108584739Y-104019261D01*
X125082739Y-113544261D02*
X125971739Y-112004468D01*
X130543739Y-104085532D02*
X131432739Y-102545739D01*
X131432739Y-102545739D02*
X132972532Y-103434739D01*
X140891468Y-108006739D02*
X142431261Y-108895739D01*
X142431261Y-108895739D02*
X141542261Y-110435532D01*
X136970261Y-118354468D02*
X136081261Y-119894261D01*
X136081261Y-119894261D02*
X134541468Y-119005261D01*
X126622532Y-114433261D02*
X125082739Y-113544261D01*
D11*
X124095000Y-50605000D02*
X126095000Y-50605000D01*
X126095000Y-48455000D02*
X124095000Y-48455000D01*
X119820000Y-5445000D02*
X119820000Y-3445000D01*
X117670000Y-3445000D02*
X117670000Y-5445000D01*
X81720000Y-5445000D02*
X81720000Y-3445000D01*
X79570000Y-3445000D02*
X79570000Y-5445000D01*
X122124023Y-111626475D02*
X121124023Y-113358525D01*
X122985977Y-114433525D02*
X123985977Y-112701475D01*
X18610000Y-20590000D02*
X18610000Y-22590000D01*
X20760000Y-22590000D02*
X20760000Y-20590000D01*
X19245000Y-72025000D02*
X19245000Y-74025000D01*
X21395000Y-74025000D02*
X21395000Y-72025000D01*
X61164023Y-82416475D02*
X60164023Y-84148525D01*
X62025977Y-85223525D02*
X63025977Y-83491475D01*
X125674286Y-51157381D02*
X125674286Y-50157381D01*
X125436191Y-50157381D01*
X125293333Y-50205000D01*
X125198095Y-50300238D01*
X125150476Y-50395476D01*
X125102857Y-50585952D01*
X125102857Y-50728810D01*
X125150476Y-50919286D01*
X125198095Y-51014524D01*
X125293333Y-51109762D01*
X125436191Y-51157381D01*
X125674286Y-51157381D01*
X124769524Y-50157381D02*
X124150476Y-50157381D01*
X124483810Y-50538333D01*
X124340952Y-50538333D01*
X124245714Y-50585952D01*
X124198095Y-50633571D01*
X124150476Y-50728810D01*
X124150476Y-50966905D01*
X124198095Y-51062143D01*
X124245714Y-51109762D01*
X124340952Y-51157381D01*
X124626667Y-51157381D01*
X124721905Y-51109762D01*
X124769524Y-51062143D01*
X123531429Y-50157381D02*
X123436190Y-50157381D01*
X123340952Y-50205000D01*
X123293333Y-50252619D01*
X123245714Y-50347857D01*
X123198095Y-50538333D01*
X123198095Y-50776429D01*
X123245714Y-50966905D01*
X123293333Y-51062143D01*
X123340952Y-51109762D01*
X123436190Y-51157381D01*
X123531429Y-51157381D01*
X123626667Y-51109762D01*
X123674286Y-51062143D01*
X123721905Y-50966905D01*
X123769524Y-50776429D01*
X123769524Y-50538333D01*
X123721905Y-50347857D01*
X123674286Y-50252619D01*
X123626667Y-50205000D01*
X123531429Y-50157381D01*
X121197381Y-8945714D02*
X120197381Y-8945714D01*
X120197381Y-9183809D01*
X120245000Y-9326667D01*
X120340238Y-9421905D01*
X120435476Y-9469524D01*
X120625952Y-9517143D01*
X120768810Y-9517143D01*
X120959286Y-9469524D01*
X121054524Y-9421905D01*
X121149762Y-9326667D01*
X121197381Y-9183809D01*
X121197381Y-8945714D01*
X120197381Y-9850476D02*
X120197381Y-10469524D01*
X120578333Y-10136190D01*
X120578333Y-10279048D01*
X120625952Y-10374286D01*
X120673571Y-10421905D01*
X120768810Y-10469524D01*
X121006905Y-10469524D01*
X121102143Y-10421905D01*
X121149762Y-10374286D01*
X121197381Y-10279048D01*
X121197381Y-9993333D01*
X121149762Y-9898095D01*
X121102143Y-9850476D01*
X121197381Y-11421905D02*
X121197381Y-10850476D01*
X121197381Y-11136190D02*
X120197381Y-11136190D01*
X120340238Y-11040952D01*
X120435476Y-10945714D01*
X120483095Y-10850476D01*
X83097381Y-8945714D02*
X82097381Y-8945714D01*
X82097381Y-9183809D01*
X82145000Y-9326667D01*
X82240238Y-9421905D01*
X82335476Y-9469524D01*
X82525952Y-9517143D01*
X82668810Y-9517143D01*
X82859286Y-9469524D01*
X82954524Y-9421905D01*
X83049762Y-9326667D01*
X83097381Y-9183809D01*
X83097381Y-8945714D01*
X82097381Y-9850476D02*
X82097381Y-10469524D01*
X82478333Y-10136190D01*
X82478333Y-10279048D01*
X82525952Y-10374286D01*
X82573571Y-10421905D01*
X82668810Y-10469524D01*
X82906905Y-10469524D01*
X83002143Y-10421905D01*
X83049762Y-10374286D01*
X83097381Y-10279048D01*
X83097381Y-9993333D01*
X83049762Y-9898095D01*
X83002143Y-9850476D01*
X82192619Y-10850476D02*
X82145000Y-10898095D01*
X82097381Y-10993333D01*
X82097381Y-11231429D01*
X82145000Y-11326667D01*
X82192619Y-11374286D01*
X82287857Y-11421905D01*
X82383095Y-11421905D01*
X82525952Y-11374286D01*
X83097381Y-10802857D01*
X83097381Y-11421905D01*
X124996865Y-105489588D02*
X124130840Y-104989588D01*
X124011793Y-105195784D01*
X123981603Y-105343312D01*
X124016462Y-105473410D01*
X124075131Y-105562268D01*
X124216279Y-105698746D01*
X124339998Y-105770175D01*
X124528764Y-105824173D01*
X124635052Y-105830553D01*
X124765150Y-105795693D01*
X124877818Y-105695784D01*
X124996865Y-105489588D01*
X123678459Y-105773135D02*
X123368935Y-106309246D01*
X123865516Y-106211046D01*
X123794087Y-106334765D01*
X123787707Y-106441053D01*
X123805137Y-106506102D01*
X123863807Y-106594961D01*
X124070003Y-106714008D01*
X124176291Y-106720388D01*
X124241340Y-106702958D01*
X124330198Y-106644289D01*
X124473056Y-106396853D01*
X124479436Y-106290565D01*
X124462006Y-106225516D01*
X123202269Y-106597921D02*
X122892745Y-107134032D01*
X123389326Y-107035833D01*
X123317897Y-107159551D01*
X123311517Y-107265839D01*
X123328947Y-107330888D01*
X123387617Y-107419747D01*
X123593813Y-107538794D01*
X123700101Y-107545174D01*
X123765150Y-107527744D01*
X123854008Y-107469075D01*
X123996865Y-107221639D01*
X124003245Y-107115351D01*
X123985815Y-107050302D01*
X24677381Y-19740714D02*
X23677381Y-19740714D01*
X23677381Y-19978809D01*
X23725000Y-20121667D01*
X23820238Y-20216905D01*
X23915476Y-20264524D01*
X24105952Y-20312143D01*
X24248810Y-20312143D01*
X24439286Y-20264524D01*
X24534524Y-20216905D01*
X24629762Y-20121667D01*
X24677381Y-19978809D01*
X24677381Y-19740714D01*
X23677381Y-20645476D02*
X23677381Y-21264524D01*
X24058333Y-20931190D01*
X24058333Y-21074048D01*
X24105952Y-21169286D01*
X24153571Y-21216905D01*
X24248810Y-21264524D01*
X24486905Y-21264524D01*
X24582143Y-21216905D01*
X24629762Y-21169286D01*
X24677381Y-21074048D01*
X24677381Y-20788333D01*
X24629762Y-20693095D01*
X24582143Y-20645476D01*
X24010714Y-22121667D02*
X24677381Y-22121667D01*
X23629762Y-21883571D02*
X24344048Y-21645476D01*
X24344048Y-22264524D01*
X18772381Y-65460714D02*
X17772381Y-65460714D01*
X17772381Y-65698809D01*
X17820000Y-65841667D01*
X17915238Y-65936905D01*
X18010476Y-65984524D01*
X18200952Y-66032143D01*
X18343810Y-66032143D01*
X18534286Y-65984524D01*
X18629524Y-65936905D01*
X18724762Y-65841667D01*
X18772381Y-65698809D01*
X18772381Y-65460714D01*
X17772381Y-66365476D02*
X17772381Y-66984524D01*
X18153333Y-66651190D01*
X18153333Y-66794048D01*
X18200952Y-66889286D01*
X18248571Y-66936905D01*
X18343810Y-66984524D01*
X18581905Y-66984524D01*
X18677143Y-66936905D01*
X18724762Y-66889286D01*
X18772381Y-66794048D01*
X18772381Y-66508333D01*
X18724762Y-66413095D01*
X18677143Y-66365476D01*
X17772381Y-67889286D02*
X17772381Y-67413095D01*
X18248571Y-67365476D01*
X18200952Y-67413095D01*
X18153333Y-67508333D01*
X18153333Y-67746429D01*
X18200952Y-67841667D01*
X18248571Y-67889286D01*
X18343810Y-67936905D01*
X18581905Y-67936905D01*
X18677143Y-67889286D01*
X18724762Y-67841667D01*
X18772381Y-67746429D01*
X18772381Y-67508333D01*
X18724762Y-67413095D01*
X18677143Y-67365476D01*
X61785967Y-82724588D02*
X60919942Y-82224588D01*
X60800895Y-82430784D01*
X60770705Y-82578312D01*
X60805564Y-82708410D01*
X60864233Y-82797268D01*
X61005381Y-82933746D01*
X61129100Y-83005175D01*
X61317866Y-83059173D01*
X61424154Y-83065553D01*
X61554252Y-83030693D01*
X61666920Y-82930784D01*
X61785967Y-82724588D01*
X60467561Y-83008135D02*
X60158037Y-83544246D01*
X60654618Y-83446046D01*
X60583189Y-83569765D01*
X60576809Y-83676053D01*
X60594239Y-83741102D01*
X60652909Y-83829961D01*
X60859105Y-83949008D01*
X60965393Y-83955388D01*
X61030442Y-83937958D01*
X61119300Y-83879289D01*
X61262158Y-83631853D01*
X61268538Y-83525565D01*
X61251108Y-83460516D01*
X59729466Y-84286554D02*
X59824704Y-84121596D01*
X59913562Y-84062927D01*
X59978611Y-84045497D01*
X60149948Y-84034447D01*
X60338714Y-84088446D01*
X60668629Y-84278922D01*
X60727298Y-84367781D01*
X60744728Y-84432829D01*
X60738348Y-84539117D01*
X60643110Y-84704075D01*
X60554252Y-84762744D01*
X60489203Y-84780174D01*
X60382915Y-84773794D01*
X60176719Y-84654747D01*
X60118049Y-84565888D01*
X60100619Y-84500839D01*
X60106999Y-84394551D01*
X60202237Y-84229593D01*
X60291095Y-84170924D01*
X60356144Y-84153495D01*
X60462433Y-84159875D01*
D13*
X92246077Y-101190409D02*
X92881077Y-100090557D01*
X92378287Y-99800271D01*
X92222352Y-99780074D01*
X92129265Y-99796162D01*
X92005940Y-99864624D01*
X91915226Y-100021746D01*
X91917598Y-100162780D01*
X91950209Y-100251439D01*
X92045668Y-100376384D01*
X92548458Y-100666670D01*
X90926254Y-100428409D02*
X91561254Y-99328557D01*
X90667742Y-99860166D01*
X90681372Y-98820557D01*
X90046372Y-99920409D01*
X88726550Y-99158409D02*
X89480734Y-99593838D01*
X89103642Y-99376124D02*
X89738642Y-98276272D01*
X89773626Y-98505964D01*
X89838846Y-98683284D01*
X89934306Y-98808229D01*
D14*
X18057334Y-20059857D02*
X17803334Y-20132429D01*
X17380001Y-20132429D01*
X17210668Y-20059857D01*
X17126001Y-19987286D01*
X17041334Y-19842143D01*
X17041334Y-19697000D01*
X17126001Y-19551857D01*
X17210668Y-19479286D01*
X17380001Y-19406714D01*
X17718668Y-19334143D01*
X17888001Y-19261571D01*
X17972668Y-19189000D01*
X18057334Y-19043857D01*
X18057334Y-18898714D01*
X17972668Y-18753571D01*
X17888001Y-18681000D01*
X17718668Y-18608429D01*
X17295334Y-18608429D01*
X17041334Y-18681000D01*
X16448668Y-18608429D02*
X16025335Y-20132429D01*
X15686668Y-19043857D01*
X15348001Y-20132429D01*
X14924668Y-18608429D01*
X14247335Y-20132429D02*
X14247335Y-18608429D01*
X13654668Y-18608429D02*
X12638668Y-18608429D01*
X13146668Y-20132429D02*
X13146668Y-18608429D01*
X11030001Y-19987286D02*
X11114667Y-20059857D01*
X11368667Y-20132429D01*
X11538001Y-20132429D01*
X11792001Y-20059857D01*
X11961334Y-19914714D01*
X12046001Y-19769571D01*
X12130667Y-19479286D01*
X12130667Y-19261571D01*
X12046001Y-18971286D01*
X11961334Y-18826143D01*
X11792001Y-18681000D01*
X11538001Y-18608429D01*
X11368667Y-18608429D01*
X11114667Y-18681000D01*
X11030001Y-18753571D01*
X10268001Y-20132429D02*
X10268001Y-18608429D01*
X10268001Y-19334143D02*
X9252001Y-19334143D01*
X9252001Y-20132429D02*
X9252001Y-18608429D01*
X8828667Y-20277571D02*
X7474000Y-20277571D01*
X7050667Y-20132429D02*
X7050667Y-18608429D01*
X6627333Y-18608429D01*
X6373333Y-18681000D01*
X6204000Y-18826143D01*
X6119333Y-18971286D01*
X6034667Y-19261571D01*
X6034667Y-19479286D01*
X6119333Y-19769571D01*
X6204000Y-19914714D01*
X6373333Y-20059857D01*
X6627333Y-20132429D01*
X7050667Y-20132429D01*
X5272667Y-20132429D02*
X5272667Y-18608429D01*
X4087333Y-18608429D02*
X3748666Y-18608429D01*
X3579333Y-18681000D01*
X3410000Y-18826143D01*
X3325333Y-19116429D01*
X3325333Y-19624429D01*
X3410000Y-19914714D01*
X3579333Y-20059857D01*
X3748666Y-20132429D01*
X4087333Y-20132429D01*
X4256666Y-20059857D01*
X4426000Y-19914714D01*
X4510666Y-19624429D01*
X4510666Y-19116429D01*
X4426000Y-18826143D01*
X4256666Y-18681000D01*
X4087333Y-18608429D01*
X2563333Y-20132429D02*
X2563333Y-18608429D01*
X2139999Y-18608429D01*
X1885999Y-18681000D01*
X1716666Y-18826143D01*
X1631999Y-18971286D01*
X1547333Y-19261571D01*
X1547333Y-19479286D01*
X1631999Y-19769571D01*
X1716666Y-19914714D01*
X1885999Y-20059857D01*
X2139999Y-20132429D01*
X2563333Y-20132429D01*
X785333Y-19334143D02*
X192666Y-19334143D01*
X-61334Y-20132429D02*
X785333Y-20132429D01*
X785333Y-18608429D01*
X-61334Y-18608429D01*
X41869334Y-20058857D02*
X41615334Y-20131429D01*
X41192001Y-20131429D01*
X41022668Y-20058857D01*
X40938001Y-19986286D01*
X40853334Y-19841143D01*
X40853334Y-19696000D01*
X40938001Y-19550857D01*
X41022668Y-19478286D01*
X41192001Y-19405714D01*
X41530668Y-19333143D01*
X41700001Y-19260571D01*
X41784668Y-19188000D01*
X41869334Y-19042857D01*
X41869334Y-18897714D01*
X41784668Y-18752571D01*
X41700001Y-18680000D01*
X41530668Y-18607429D01*
X41107334Y-18607429D01*
X40853334Y-18680000D01*
X40260668Y-18607429D02*
X39837335Y-20131429D01*
X39498668Y-19042857D01*
X39160001Y-20131429D01*
X38736668Y-18607429D01*
X38059335Y-20131429D02*
X38059335Y-18607429D01*
X37466668Y-18607429D02*
X36450668Y-18607429D01*
X36958668Y-20131429D02*
X36958668Y-18607429D01*
X34842001Y-19986286D02*
X34926667Y-20058857D01*
X35180667Y-20131429D01*
X35350001Y-20131429D01*
X35604001Y-20058857D01*
X35773334Y-19913714D01*
X35858001Y-19768571D01*
X35942667Y-19478286D01*
X35942667Y-19260571D01*
X35858001Y-18970286D01*
X35773334Y-18825143D01*
X35604001Y-18680000D01*
X35350001Y-18607429D01*
X35180667Y-18607429D01*
X34926667Y-18680000D01*
X34842001Y-18752571D01*
X34080001Y-20131429D02*
X34080001Y-18607429D01*
X34080001Y-19333143D02*
X33064001Y-19333143D01*
X33064001Y-20131429D02*
X33064001Y-18607429D01*
X32640667Y-20276571D02*
X31286000Y-20276571D01*
X30862667Y-20131429D02*
X30862667Y-18607429D01*
X30439333Y-18607429D01*
X30185333Y-18680000D01*
X30016000Y-18825143D01*
X29931333Y-18970286D01*
X29846667Y-19260571D01*
X29846667Y-19478286D01*
X29931333Y-19768571D01*
X30016000Y-19913714D01*
X30185333Y-20058857D01*
X30439333Y-20131429D01*
X30862667Y-20131429D01*
X29084667Y-20131429D02*
X29084667Y-18607429D01*
X27899333Y-18607429D02*
X27560666Y-18607429D01*
X27391333Y-18680000D01*
X27222000Y-18825143D01*
X27137333Y-19115429D01*
X27137333Y-19623429D01*
X27222000Y-19913714D01*
X27391333Y-20058857D01*
X27560666Y-20131429D01*
X27899333Y-20131429D01*
X28068666Y-20058857D01*
X28238000Y-19913714D01*
X28322666Y-19623429D01*
X28322666Y-19115429D01*
X28238000Y-18825143D01*
X28068666Y-18680000D01*
X27899333Y-18607429D01*
X26375333Y-20131429D02*
X26375333Y-18607429D01*
X25951999Y-18607429D01*
X25697999Y-18680000D01*
X25528666Y-18825143D01*
X25443999Y-18970286D01*
X25359333Y-19260571D01*
X25359333Y-19478286D01*
X25443999Y-19768571D01*
X25528666Y-19913714D01*
X25697999Y-20058857D01*
X25951999Y-20131429D01*
X26375333Y-20131429D01*
X24597333Y-19333143D02*
X24004666Y-19333143D01*
X23750666Y-20131429D02*
X24597333Y-20131429D01*
X24597333Y-18607429D01*
X23750666Y-18607429D01*
X60919334Y-15297857D02*
X60665334Y-15370429D01*
X60242001Y-15370429D01*
X60072668Y-15297857D01*
X59988001Y-15225286D01*
X59903334Y-15080143D01*
X59903334Y-14935000D01*
X59988001Y-14789857D01*
X60072668Y-14717286D01*
X60242001Y-14644714D01*
X60580668Y-14572143D01*
X60750001Y-14499571D01*
X60834668Y-14427000D01*
X60919334Y-14281857D01*
X60919334Y-14136714D01*
X60834668Y-13991571D01*
X60750001Y-13919000D01*
X60580668Y-13846429D01*
X60157334Y-13846429D01*
X59903334Y-13919000D01*
X59310668Y-13846429D02*
X58887335Y-15370429D01*
X58548668Y-14281857D01*
X58210001Y-15370429D01*
X57786668Y-13846429D01*
X57109335Y-15370429D02*
X57109335Y-13846429D01*
X56516668Y-13846429D02*
X55500668Y-13846429D01*
X56008668Y-15370429D02*
X56008668Y-13846429D01*
X53892001Y-15225286D02*
X53976667Y-15297857D01*
X54230667Y-15370429D01*
X54400001Y-15370429D01*
X54654001Y-15297857D01*
X54823334Y-15152714D01*
X54908001Y-15007571D01*
X54992667Y-14717286D01*
X54992667Y-14499571D01*
X54908001Y-14209286D01*
X54823334Y-14064143D01*
X54654001Y-13919000D01*
X54400001Y-13846429D01*
X54230667Y-13846429D01*
X53976667Y-13919000D01*
X53892001Y-13991571D01*
X53130001Y-15370429D02*
X53130001Y-13846429D01*
X53130001Y-14572143D02*
X52114001Y-14572143D01*
X52114001Y-15370429D02*
X52114001Y-13846429D01*
X51690667Y-15515571D02*
X50336000Y-15515571D01*
X49912667Y-15370429D02*
X49912667Y-13846429D01*
X49489333Y-13846429D01*
X49235333Y-13919000D01*
X49066000Y-14064143D01*
X48981333Y-14209286D01*
X48896667Y-14499571D01*
X48896667Y-14717286D01*
X48981333Y-15007571D01*
X49066000Y-15152714D01*
X49235333Y-15297857D01*
X49489333Y-15370429D01*
X49912667Y-15370429D01*
X48134667Y-15370429D02*
X48134667Y-13846429D01*
X46949333Y-13846429D02*
X46610666Y-13846429D01*
X46441333Y-13919000D01*
X46272000Y-14064143D01*
X46187333Y-14354429D01*
X46187333Y-14862429D01*
X46272000Y-15152714D01*
X46441333Y-15297857D01*
X46610666Y-15370429D01*
X46949333Y-15370429D01*
X47118666Y-15297857D01*
X47288000Y-15152714D01*
X47372666Y-14862429D01*
X47372666Y-14354429D01*
X47288000Y-14064143D01*
X47118666Y-13919000D01*
X46949333Y-13846429D01*
X45425333Y-15370429D02*
X45425333Y-13846429D01*
X45001999Y-13846429D01*
X44747999Y-13919000D01*
X44578666Y-14064143D01*
X44493999Y-14209286D01*
X44409333Y-14499571D01*
X44409333Y-14717286D01*
X44493999Y-15007571D01*
X44578666Y-15152714D01*
X44747999Y-15297857D01*
X45001999Y-15370429D01*
X45425333Y-15370429D01*
X43647333Y-14572143D02*
X43054666Y-14572143D01*
X42800666Y-15370429D02*
X43647333Y-15370429D01*
X43647333Y-13846429D01*
X42800666Y-13846429D01*
X79969334Y-12916857D02*
X79715334Y-12989429D01*
X79292001Y-12989429D01*
X79122668Y-12916857D01*
X79038001Y-12844286D01*
X78953334Y-12699143D01*
X78953334Y-12554000D01*
X79038001Y-12408857D01*
X79122668Y-12336286D01*
X79292001Y-12263714D01*
X79630668Y-12191143D01*
X79800001Y-12118571D01*
X79884668Y-12046000D01*
X79969334Y-11900857D01*
X79969334Y-11755714D01*
X79884668Y-11610571D01*
X79800001Y-11538000D01*
X79630668Y-11465429D01*
X79207334Y-11465429D01*
X78953334Y-11538000D01*
X78360668Y-11465429D02*
X77937335Y-12989429D01*
X77598668Y-11900857D01*
X77260001Y-12989429D01*
X76836668Y-11465429D01*
X76159335Y-12989429D02*
X76159335Y-11465429D01*
X75566668Y-11465429D02*
X74550668Y-11465429D01*
X75058668Y-12989429D02*
X75058668Y-11465429D01*
X72942001Y-12844286D02*
X73026667Y-12916857D01*
X73280667Y-12989429D01*
X73450001Y-12989429D01*
X73704001Y-12916857D01*
X73873334Y-12771714D01*
X73958001Y-12626571D01*
X74042667Y-12336286D01*
X74042667Y-12118571D01*
X73958001Y-11828286D01*
X73873334Y-11683143D01*
X73704001Y-11538000D01*
X73450001Y-11465429D01*
X73280667Y-11465429D01*
X73026667Y-11538000D01*
X72942001Y-11610571D01*
X72180001Y-12989429D02*
X72180001Y-11465429D01*
X72180001Y-12191143D02*
X71164001Y-12191143D01*
X71164001Y-12989429D02*
X71164001Y-11465429D01*
X70740667Y-13134571D02*
X69386000Y-13134571D01*
X68962667Y-12989429D02*
X68962667Y-11465429D01*
X68539333Y-11465429D01*
X68285333Y-11538000D01*
X68116000Y-11683143D01*
X68031333Y-11828286D01*
X67946667Y-12118571D01*
X67946667Y-12336286D01*
X68031333Y-12626571D01*
X68116000Y-12771714D01*
X68285333Y-12916857D01*
X68539333Y-12989429D01*
X68962667Y-12989429D01*
X67184667Y-12989429D02*
X67184667Y-11465429D01*
X65999333Y-11465429D02*
X65660666Y-11465429D01*
X65491333Y-11538000D01*
X65322000Y-11683143D01*
X65237333Y-11973429D01*
X65237333Y-12481429D01*
X65322000Y-12771714D01*
X65491333Y-12916857D01*
X65660666Y-12989429D01*
X65999333Y-12989429D01*
X66168666Y-12916857D01*
X66338000Y-12771714D01*
X66422666Y-12481429D01*
X66422666Y-11973429D01*
X66338000Y-11683143D01*
X66168666Y-11538000D01*
X65999333Y-11465429D01*
X64475333Y-12989429D02*
X64475333Y-11465429D01*
X64051999Y-11465429D01*
X63797999Y-11538000D01*
X63628666Y-11683143D01*
X63543999Y-11828286D01*
X63459333Y-12118571D01*
X63459333Y-12336286D01*
X63543999Y-12626571D01*
X63628666Y-12771714D01*
X63797999Y-12916857D01*
X64051999Y-12989429D01*
X64475333Y-12989429D01*
X62697333Y-12191143D02*
X62104666Y-12191143D01*
X61850666Y-12989429D02*
X62697333Y-12989429D01*
X62697333Y-11465429D01*
X61850666Y-11465429D01*
X99019334Y-15297857D02*
X98765334Y-15370429D01*
X98342001Y-15370429D01*
X98172668Y-15297857D01*
X98088001Y-15225286D01*
X98003334Y-15080143D01*
X98003334Y-14935000D01*
X98088001Y-14789857D01*
X98172668Y-14717286D01*
X98342001Y-14644714D01*
X98680668Y-14572143D01*
X98850001Y-14499571D01*
X98934668Y-14427000D01*
X99019334Y-14281857D01*
X99019334Y-14136714D01*
X98934668Y-13991571D01*
X98850001Y-13919000D01*
X98680668Y-13846429D01*
X98257334Y-13846429D01*
X98003334Y-13919000D01*
X97410668Y-13846429D02*
X96987335Y-15370429D01*
X96648668Y-14281857D01*
X96310001Y-15370429D01*
X95886668Y-13846429D01*
X95209335Y-15370429D02*
X95209335Y-13846429D01*
X94616668Y-13846429D02*
X93600668Y-13846429D01*
X94108668Y-15370429D02*
X94108668Y-13846429D01*
X91992001Y-15225286D02*
X92076667Y-15297857D01*
X92330667Y-15370429D01*
X92500001Y-15370429D01*
X92754001Y-15297857D01*
X92923334Y-15152714D01*
X93008001Y-15007571D01*
X93092667Y-14717286D01*
X93092667Y-14499571D01*
X93008001Y-14209286D01*
X92923334Y-14064143D01*
X92754001Y-13919000D01*
X92500001Y-13846429D01*
X92330667Y-13846429D01*
X92076667Y-13919000D01*
X91992001Y-13991571D01*
X91230001Y-15370429D02*
X91230001Y-13846429D01*
X91230001Y-14572143D02*
X90214001Y-14572143D01*
X90214001Y-15370429D02*
X90214001Y-13846429D01*
X89790667Y-15515571D02*
X88436000Y-15515571D01*
X88012667Y-15370429D02*
X88012667Y-13846429D01*
X87589333Y-13846429D01*
X87335333Y-13919000D01*
X87166000Y-14064143D01*
X87081333Y-14209286D01*
X86996667Y-14499571D01*
X86996667Y-14717286D01*
X87081333Y-15007571D01*
X87166000Y-15152714D01*
X87335333Y-15297857D01*
X87589333Y-15370429D01*
X88012667Y-15370429D01*
X86234667Y-15370429D02*
X86234667Y-13846429D01*
X85049333Y-13846429D02*
X84710666Y-13846429D01*
X84541333Y-13919000D01*
X84372000Y-14064143D01*
X84287333Y-14354429D01*
X84287333Y-14862429D01*
X84372000Y-15152714D01*
X84541333Y-15297857D01*
X84710666Y-15370429D01*
X85049333Y-15370429D01*
X85218666Y-15297857D01*
X85388000Y-15152714D01*
X85472666Y-14862429D01*
X85472666Y-14354429D01*
X85388000Y-14064143D01*
X85218666Y-13919000D01*
X85049333Y-13846429D01*
X83525333Y-15370429D02*
X83525333Y-13846429D01*
X83101999Y-13846429D01*
X82847999Y-13919000D01*
X82678666Y-14064143D01*
X82593999Y-14209286D01*
X82509333Y-14499571D01*
X82509333Y-14717286D01*
X82593999Y-15007571D01*
X82678666Y-15152714D01*
X82847999Y-15297857D01*
X83101999Y-15370429D01*
X83525333Y-15370429D01*
X81747333Y-14572143D02*
X81154666Y-14572143D01*
X80900666Y-15370429D02*
X81747333Y-15370429D01*
X81747333Y-13846429D01*
X80900666Y-13846429D01*
X118069334Y-17678857D02*
X117815334Y-17751429D01*
X117392001Y-17751429D01*
X117222668Y-17678857D01*
X117138001Y-17606286D01*
X117053334Y-17461143D01*
X117053334Y-17316000D01*
X117138001Y-17170857D01*
X117222668Y-17098286D01*
X117392001Y-17025714D01*
X117730668Y-16953143D01*
X117900001Y-16880571D01*
X117984668Y-16808000D01*
X118069334Y-16662857D01*
X118069334Y-16517714D01*
X117984668Y-16372571D01*
X117900001Y-16300000D01*
X117730668Y-16227429D01*
X117307334Y-16227429D01*
X117053334Y-16300000D01*
X116460668Y-16227429D02*
X116037335Y-17751429D01*
X115698668Y-16662857D01*
X115360001Y-17751429D01*
X114936668Y-16227429D01*
X114259335Y-17751429D02*
X114259335Y-16227429D01*
X113666668Y-16227429D02*
X112650668Y-16227429D01*
X113158668Y-17751429D02*
X113158668Y-16227429D01*
X111042001Y-17606286D02*
X111126667Y-17678857D01*
X111380667Y-17751429D01*
X111550001Y-17751429D01*
X111804001Y-17678857D01*
X111973334Y-17533714D01*
X112058001Y-17388571D01*
X112142667Y-17098286D01*
X112142667Y-16880571D01*
X112058001Y-16590286D01*
X111973334Y-16445143D01*
X111804001Y-16300000D01*
X111550001Y-16227429D01*
X111380667Y-16227429D01*
X111126667Y-16300000D01*
X111042001Y-16372571D01*
X110280001Y-17751429D02*
X110280001Y-16227429D01*
X110280001Y-16953143D02*
X109264001Y-16953143D01*
X109264001Y-17751429D02*
X109264001Y-16227429D01*
X108840667Y-17896571D02*
X107486000Y-17896571D01*
X107062667Y-17751429D02*
X107062667Y-16227429D01*
X106639333Y-16227429D01*
X106385333Y-16300000D01*
X106216000Y-16445143D01*
X106131333Y-16590286D01*
X106046667Y-16880571D01*
X106046667Y-17098286D01*
X106131333Y-17388571D01*
X106216000Y-17533714D01*
X106385333Y-17678857D01*
X106639333Y-17751429D01*
X107062667Y-17751429D01*
X105284667Y-17751429D02*
X105284667Y-16227429D01*
X104099333Y-16227429D02*
X103760666Y-16227429D01*
X103591333Y-16300000D01*
X103422000Y-16445143D01*
X103337333Y-16735429D01*
X103337333Y-17243429D01*
X103422000Y-17533714D01*
X103591333Y-17678857D01*
X103760666Y-17751429D01*
X104099333Y-17751429D01*
X104268666Y-17678857D01*
X104438000Y-17533714D01*
X104522666Y-17243429D01*
X104522666Y-16735429D01*
X104438000Y-16445143D01*
X104268666Y-16300000D01*
X104099333Y-16227429D01*
X102575333Y-17751429D02*
X102575333Y-16227429D01*
X102151999Y-16227429D01*
X101897999Y-16300000D01*
X101728666Y-16445143D01*
X101643999Y-16590286D01*
X101559333Y-16880571D01*
X101559333Y-17098286D01*
X101643999Y-17388571D01*
X101728666Y-17533714D01*
X101897999Y-17678857D01*
X102151999Y-17751429D01*
X102575333Y-17751429D01*
X100797333Y-16953143D02*
X100204666Y-16953143D01*
X99950666Y-17751429D02*
X100797333Y-17751429D01*
X100797333Y-16227429D01*
X99950666Y-16227429D01*
X137119334Y-17678857D02*
X136865334Y-17751429D01*
X136442001Y-17751429D01*
X136272668Y-17678857D01*
X136188001Y-17606286D01*
X136103334Y-17461143D01*
X136103334Y-17316000D01*
X136188001Y-17170857D01*
X136272668Y-17098286D01*
X136442001Y-17025714D01*
X136780668Y-16953143D01*
X136950001Y-16880571D01*
X137034668Y-16808000D01*
X137119334Y-16662857D01*
X137119334Y-16517714D01*
X137034668Y-16372571D01*
X136950001Y-16300000D01*
X136780668Y-16227429D01*
X136357334Y-16227429D01*
X136103334Y-16300000D01*
X135510668Y-16227429D02*
X135087335Y-17751429D01*
X134748668Y-16662857D01*
X134410001Y-17751429D01*
X133986668Y-16227429D01*
X133309335Y-17751429D02*
X133309335Y-16227429D01*
X132716668Y-16227429D02*
X131700668Y-16227429D01*
X132208668Y-17751429D02*
X132208668Y-16227429D01*
X130092001Y-17606286D02*
X130176667Y-17678857D01*
X130430667Y-17751429D01*
X130600001Y-17751429D01*
X130854001Y-17678857D01*
X131023334Y-17533714D01*
X131108001Y-17388571D01*
X131192667Y-17098286D01*
X131192667Y-16880571D01*
X131108001Y-16590286D01*
X131023334Y-16445143D01*
X130854001Y-16300000D01*
X130600001Y-16227429D01*
X130430667Y-16227429D01*
X130176667Y-16300000D01*
X130092001Y-16372571D01*
X129330001Y-17751429D02*
X129330001Y-16227429D01*
X129330001Y-16953143D02*
X128314001Y-16953143D01*
X128314001Y-17751429D02*
X128314001Y-16227429D01*
X127890667Y-17896571D02*
X126536000Y-17896571D01*
X126112667Y-17751429D02*
X126112667Y-16227429D01*
X125689333Y-16227429D01*
X125435333Y-16300000D01*
X125266000Y-16445143D01*
X125181333Y-16590286D01*
X125096667Y-16880571D01*
X125096667Y-17098286D01*
X125181333Y-17388571D01*
X125266000Y-17533714D01*
X125435333Y-17678857D01*
X125689333Y-17751429D01*
X126112667Y-17751429D01*
X124334667Y-17751429D02*
X124334667Y-16227429D01*
X123149333Y-16227429D02*
X122810666Y-16227429D01*
X122641333Y-16300000D01*
X122472000Y-16445143D01*
X122387333Y-16735429D01*
X122387333Y-17243429D01*
X122472000Y-17533714D01*
X122641333Y-17678857D01*
X122810666Y-17751429D01*
X123149333Y-17751429D01*
X123318666Y-17678857D01*
X123488000Y-17533714D01*
X123572666Y-17243429D01*
X123572666Y-16735429D01*
X123488000Y-16445143D01*
X123318666Y-16300000D01*
X123149333Y-16227429D01*
X121625333Y-17751429D02*
X121625333Y-16227429D01*
X121201999Y-16227429D01*
X120947999Y-16300000D01*
X120778666Y-16445143D01*
X120693999Y-16590286D01*
X120609333Y-16880571D01*
X120609333Y-17098286D01*
X120693999Y-17388571D01*
X120778666Y-17533714D01*
X120947999Y-17678857D01*
X121201999Y-17751429D01*
X121625333Y-17751429D01*
X119847333Y-16953143D02*
X119254666Y-16953143D01*
X119000666Y-17751429D02*
X119847333Y-17751429D01*
X119847333Y-16227429D01*
X119000666Y-16227429D01*
X18057334Y-39109857D02*
X17803334Y-39182429D01*
X17380001Y-39182429D01*
X17210668Y-39109857D01*
X17126001Y-39037286D01*
X17041334Y-38892143D01*
X17041334Y-38747000D01*
X17126001Y-38601857D01*
X17210668Y-38529286D01*
X17380001Y-38456714D01*
X17718668Y-38384143D01*
X17888001Y-38311571D01*
X17972668Y-38239000D01*
X18057334Y-38093857D01*
X18057334Y-37948714D01*
X17972668Y-37803571D01*
X17888001Y-37731000D01*
X17718668Y-37658429D01*
X17295334Y-37658429D01*
X17041334Y-37731000D01*
X16448668Y-37658429D02*
X16025335Y-39182429D01*
X15686668Y-38093857D01*
X15348001Y-39182429D01*
X14924668Y-37658429D01*
X14247335Y-39182429D02*
X14247335Y-37658429D01*
X13654668Y-37658429D02*
X12638668Y-37658429D01*
X13146668Y-39182429D02*
X13146668Y-37658429D01*
X11030001Y-39037286D02*
X11114667Y-39109857D01*
X11368667Y-39182429D01*
X11538001Y-39182429D01*
X11792001Y-39109857D01*
X11961334Y-38964714D01*
X12046001Y-38819571D01*
X12130667Y-38529286D01*
X12130667Y-38311571D01*
X12046001Y-38021286D01*
X11961334Y-37876143D01*
X11792001Y-37731000D01*
X11538001Y-37658429D01*
X11368667Y-37658429D01*
X11114667Y-37731000D01*
X11030001Y-37803571D01*
X10268001Y-39182429D02*
X10268001Y-37658429D01*
X10268001Y-38384143D02*
X9252001Y-38384143D01*
X9252001Y-39182429D02*
X9252001Y-37658429D01*
X8828667Y-39327571D02*
X7474000Y-39327571D01*
X7050667Y-39182429D02*
X7050667Y-37658429D01*
X6627333Y-37658429D01*
X6373333Y-37731000D01*
X6204000Y-37876143D01*
X6119333Y-38021286D01*
X6034667Y-38311571D01*
X6034667Y-38529286D01*
X6119333Y-38819571D01*
X6204000Y-38964714D01*
X6373333Y-39109857D01*
X6627333Y-39182429D01*
X7050667Y-39182429D01*
X5272667Y-39182429D02*
X5272667Y-37658429D01*
X4087333Y-37658429D02*
X3748666Y-37658429D01*
X3579333Y-37731000D01*
X3410000Y-37876143D01*
X3325333Y-38166429D01*
X3325333Y-38674429D01*
X3410000Y-38964714D01*
X3579333Y-39109857D01*
X3748666Y-39182429D01*
X4087333Y-39182429D01*
X4256666Y-39109857D01*
X4426000Y-38964714D01*
X4510666Y-38674429D01*
X4510666Y-38166429D01*
X4426000Y-37876143D01*
X4256666Y-37731000D01*
X4087333Y-37658429D01*
X2563333Y-39182429D02*
X2563333Y-37658429D01*
X2139999Y-37658429D01*
X1885999Y-37731000D01*
X1716666Y-37876143D01*
X1631999Y-38021286D01*
X1547333Y-38311571D01*
X1547333Y-38529286D01*
X1631999Y-38819571D01*
X1716666Y-38964714D01*
X1885999Y-39109857D01*
X2139999Y-39182429D01*
X2563333Y-39182429D01*
X785333Y-38384143D02*
X192666Y-38384143D01*
X-61334Y-39182429D02*
X785333Y-39182429D01*
X785333Y-37658429D01*
X-61334Y-37658429D01*
X41869334Y-39109857D02*
X41615334Y-39182429D01*
X41192001Y-39182429D01*
X41022668Y-39109857D01*
X40938001Y-39037286D01*
X40853334Y-38892143D01*
X40853334Y-38747000D01*
X40938001Y-38601857D01*
X41022668Y-38529286D01*
X41192001Y-38456714D01*
X41530668Y-38384143D01*
X41700001Y-38311571D01*
X41784668Y-38239000D01*
X41869334Y-38093857D01*
X41869334Y-37948714D01*
X41784668Y-37803571D01*
X41700001Y-37731000D01*
X41530668Y-37658429D01*
X41107334Y-37658429D01*
X40853334Y-37731000D01*
X40260668Y-37658429D02*
X39837335Y-39182429D01*
X39498668Y-38093857D01*
X39160001Y-39182429D01*
X38736668Y-37658429D01*
X38059335Y-39182429D02*
X38059335Y-37658429D01*
X37466668Y-37658429D02*
X36450668Y-37658429D01*
X36958668Y-39182429D02*
X36958668Y-37658429D01*
X34842001Y-39037286D02*
X34926667Y-39109857D01*
X35180667Y-39182429D01*
X35350001Y-39182429D01*
X35604001Y-39109857D01*
X35773334Y-38964714D01*
X35858001Y-38819571D01*
X35942667Y-38529286D01*
X35942667Y-38311571D01*
X35858001Y-38021286D01*
X35773334Y-37876143D01*
X35604001Y-37731000D01*
X35350001Y-37658429D01*
X35180667Y-37658429D01*
X34926667Y-37731000D01*
X34842001Y-37803571D01*
X34080001Y-39182429D02*
X34080001Y-37658429D01*
X34080001Y-38384143D02*
X33064001Y-38384143D01*
X33064001Y-39182429D02*
X33064001Y-37658429D01*
X32640667Y-39327571D02*
X31286000Y-39327571D01*
X30862667Y-39182429D02*
X30862667Y-37658429D01*
X30439333Y-37658429D01*
X30185333Y-37731000D01*
X30016000Y-37876143D01*
X29931333Y-38021286D01*
X29846667Y-38311571D01*
X29846667Y-38529286D01*
X29931333Y-38819571D01*
X30016000Y-38964714D01*
X30185333Y-39109857D01*
X30439333Y-39182429D01*
X30862667Y-39182429D01*
X29084667Y-39182429D02*
X29084667Y-37658429D01*
X27899333Y-37658429D02*
X27560666Y-37658429D01*
X27391333Y-37731000D01*
X27222000Y-37876143D01*
X27137333Y-38166429D01*
X27137333Y-38674429D01*
X27222000Y-38964714D01*
X27391333Y-39109857D01*
X27560666Y-39182429D01*
X27899333Y-39182429D01*
X28068666Y-39109857D01*
X28238000Y-38964714D01*
X28322666Y-38674429D01*
X28322666Y-38166429D01*
X28238000Y-37876143D01*
X28068666Y-37731000D01*
X27899333Y-37658429D01*
X26375333Y-39182429D02*
X26375333Y-37658429D01*
X25951999Y-37658429D01*
X25697999Y-37731000D01*
X25528666Y-37876143D01*
X25443999Y-38021286D01*
X25359333Y-38311571D01*
X25359333Y-38529286D01*
X25443999Y-38819571D01*
X25528666Y-38964714D01*
X25697999Y-39109857D01*
X25951999Y-39182429D01*
X26375333Y-39182429D01*
X24597333Y-38384143D02*
X24004666Y-38384143D01*
X23750666Y-39182429D02*
X24597333Y-39182429D01*
X24597333Y-37658429D01*
X23750666Y-37658429D01*
X60919334Y-34347857D02*
X60665334Y-34420429D01*
X60242001Y-34420429D01*
X60072668Y-34347857D01*
X59988001Y-34275286D01*
X59903334Y-34130143D01*
X59903334Y-33985000D01*
X59988001Y-33839857D01*
X60072668Y-33767286D01*
X60242001Y-33694714D01*
X60580668Y-33622143D01*
X60750001Y-33549571D01*
X60834668Y-33477000D01*
X60919334Y-33331857D01*
X60919334Y-33186714D01*
X60834668Y-33041571D01*
X60750001Y-32969000D01*
X60580668Y-32896429D01*
X60157334Y-32896429D01*
X59903334Y-32969000D01*
X59310668Y-32896429D02*
X58887335Y-34420429D01*
X58548668Y-33331857D01*
X58210001Y-34420429D01*
X57786668Y-32896429D01*
X57109335Y-34420429D02*
X57109335Y-32896429D01*
X56516668Y-32896429D02*
X55500668Y-32896429D01*
X56008668Y-34420429D02*
X56008668Y-32896429D01*
X53892001Y-34275286D02*
X53976667Y-34347857D01*
X54230667Y-34420429D01*
X54400001Y-34420429D01*
X54654001Y-34347857D01*
X54823334Y-34202714D01*
X54908001Y-34057571D01*
X54992667Y-33767286D01*
X54992667Y-33549571D01*
X54908001Y-33259286D01*
X54823334Y-33114143D01*
X54654001Y-32969000D01*
X54400001Y-32896429D01*
X54230667Y-32896429D01*
X53976667Y-32969000D01*
X53892001Y-33041571D01*
X53130001Y-34420429D02*
X53130001Y-32896429D01*
X53130001Y-33622143D02*
X52114001Y-33622143D01*
X52114001Y-34420429D02*
X52114001Y-32896429D01*
X51690667Y-34565571D02*
X50336000Y-34565571D01*
X49912667Y-34420429D02*
X49912667Y-32896429D01*
X49489333Y-32896429D01*
X49235333Y-32969000D01*
X49066000Y-33114143D01*
X48981333Y-33259286D01*
X48896667Y-33549571D01*
X48896667Y-33767286D01*
X48981333Y-34057571D01*
X49066000Y-34202714D01*
X49235333Y-34347857D01*
X49489333Y-34420429D01*
X49912667Y-34420429D01*
X48134667Y-34420429D02*
X48134667Y-32896429D01*
X46949333Y-32896429D02*
X46610666Y-32896429D01*
X46441333Y-32969000D01*
X46272000Y-33114143D01*
X46187333Y-33404429D01*
X46187333Y-33912429D01*
X46272000Y-34202714D01*
X46441333Y-34347857D01*
X46610666Y-34420429D01*
X46949333Y-34420429D01*
X47118666Y-34347857D01*
X47288000Y-34202714D01*
X47372666Y-33912429D01*
X47372666Y-33404429D01*
X47288000Y-33114143D01*
X47118666Y-32969000D01*
X46949333Y-32896429D01*
X45425333Y-34420429D02*
X45425333Y-32896429D01*
X45001999Y-32896429D01*
X44747999Y-32969000D01*
X44578666Y-33114143D01*
X44493999Y-33259286D01*
X44409333Y-33549571D01*
X44409333Y-33767286D01*
X44493999Y-34057571D01*
X44578666Y-34202714D01*
X44747999Y-34347857D01*
X45001999Y-34420429D01*
X45425333Y-34420429D01*
X43647333Y-33622143D02*
X43054666Y-33622143D01*
X42800666Y-34420429D02*
X43647333Y-34420429D01*
X43647333Y-32896429D01*
X42800666Y-32896429D01*
X79969334Y-31956857D02*
X79715334Y-32029429D01*
X79292001Y-32029429D01*
X79122668Y-31956857D01*
X79038001Y-31884286D01*
X78953334Y-31739143D01*
X78953334Y-31594000D01*
X79038001Y-31448857D01*
X79122668Y-31376286D01*
X79292001Y-31303714D01*
X79630668Y-31231143D01*
X79800001Y-31158571D01*
X79884668Y-31086000D01*
X79969334Y-30940857D01*
X79969334Y-30795714D01*
X79884668Y-30650571D01*
X79800001Y-30578000D01*
X79630668Y-30505429D01*
X79207334Y-30505429D01*
X78953334Y-30578000D01*
X78360668Y-30505429D02*
X77937335Y-32029429D01*
X77598668Y-30940857D01*
X77260001Y-32029429D01*
X76836668Y-30505429D01*
X76159335Y-32029429D02*
X76159335Y-30505429D01*
X75566668Y-30505429D02*
X74550668Y-30505429D01*
X75058668Y-32029429D02*
X75058668Y-30505429D01*
X72942001Y-31884286D02*
X73026667Y-31956857D01*
X73280667Y-32029429D01*
X73450001Y-32029429D01*
X73704001Y-31956857D01*
X73873334Y-31811714D01*
X73958001Y-31666571D01*
X74042667Y-31376286D01*
X74042667Y-31158571D01*
X73958001Y-30868286D01*
X73873334Y-30723143D01*
X73704001Y-30578000D01*
X73450001Y-30505429D01*
X73280667Y-30505429D01*
X73026667Y-30578000D01*
X72942001Y-30650571D01*
X72180001Y-32029429D02*
X72180001Y-30505429D01*
X72180001Y-31231143D02*
X71164001Y-31231143D01*
X71164001Y-32029429D02*
X71164001Y-30505429D01*
X70740667Y-32174571D02*
X69386000Y-32174571D01*
X68962667Y-32029429D02*
X68962667Y-30505429D01*
X68539333Y-30505429D01*
X68285333Y-30578000D01*
X68116000Y-30723143D01*
X68031333Y-30868286D01*
X67946667Y-31158571D01*
X67946667Y-31376286D01*
X68031333Y-31666571D01*
X68116000Y-31811714D01*
X68285333Y-31956857D01*
X68539333Y-32029429D01*
X68962667Y-32029429D01*
X67184667Y-32029429D02*
X67184667Y-30505429D01*
X65999333Y-30505429D02*
X65660666Y-30505429D01*
X65491333Y-30578000D01*
X65322000Y-30723143D01*
X65237333Y-31013429D01*
X65237333Y-31521429D01*
X65322000Y-31811714D01*
X65491333Y-31956857D01*
X65660666Y-32029429D01*
X65999333Y-32029429D01*
X66168666Y-31956857D01*
X66338000Y-31811714D01*
X66422666Y-31521429D01*
X66422666Y-31013429D01*
X66338000Y-30723143D01*
X66168666Y-30578000D01*
X65999333Y-30505429D01*
X64475333Y-32029429D02*
X64475333Y-30505429D01*
X64051999Y-30505429D01*
X63797999Y-30578000D01*
X63628666Y-30723143D01*
X63543999Y-30868286D01*
X63459333Y-31158571D01*
X63459333Y-31376286D01*
X63543999Y-31666571D01*
X63628666Y-31811714D01*
X63797999Y-31956857D01*
X64051999Y-32029429D01*
X64475333Y-32029429D01*
X62697333Y-31231143D02*
X62104666Y-31231143D01*
X61850666Y-32029429D02*
X62697333Y-32029429D01*
X62697333Y-30505429D01*
X61850666Y-30505429D01*
X99019334Y-34347857D02*
X98765334Y-34420429D01*
X98342001Y-34420429D01*
X98172668Y-34347857D01*
X98088001Y-34275286D01*
X98003334Y-34130143D01*
X98003334Y-33985000D01*
X98088001Y-33839857D01*
X98172668Y-33767286D01*
X98342001Y-33694714D01*
X98680668Y-33622143D01*
X98850001Y-33549571D01*
X98934668Y-33477000D01*
X99019334Y-33331857D01*
X99019334Y-33186714D01*
X98934668Y-33041571D01*
X98850001Y-32969000D01*
X98680668Y-32896429D01*
X98257334Y-32896429D01*
X98003334Y-32969000D01*
X97410668Y-32896429D02*
X96987335Y-34420429D01*
X96648668Y-33331857D01*
X96310001Y-34420429D01*
X95886668Y-32896429D01*
X95209335Y-34420429D02*
X95209335Y-32896429D01*
X94616668Y-32896429D02*
X93600668Y-32896429D01*
X94108668Y-34420429D02*
X94108668Y-32896429D01*
X91992001Y-34275286D02*
X92076667Y-34347857D01*
X92330667Y-34420429D01*
X92500001Y-34420429D01*
X92754001Y-34347857D01*
X92923334Y-34202714D01*
X93008001Y-34057571D01*
X93092667Y-33767286D01*
X93092667Y-33549571D01*
X93008001Y-33259286D01*
X92923334Y-33114143D01*
X92754001Y-32969000D01*
X92500001Y-32896429D01*
X92330667Y-32896429D01*
X92076667Y-32969000D01*
X91992001Y-33041571D01*
X91230001Y-34420429D02*
X91230001Y-32896429D01*
X91230001Y-33622143D02*
X90214001Y-33622143D01*
X90214001Y-34420429D02*
X90214001Y-32896429D01*
X89790667Y-34565571D02*
X88436000Y-34565571D01*
X88012667Y-34420429D02*
X88012667Y-32896429D01*
X87589333Y-32896429D01*
X87335333Y-32969000D01*
X87166000Y-33114143D01*
X87081333Y-33259286D01*
X86996667Y-33549571D01*
X86996667Y-33767286D01*
X87081333Y-34057571D01*
X87166000Y-34202714D01*
X87335333Y-34347857D01*
X87589333Y-34420429D01*
X88012667Y-34420429D01*
X86234667Y-34420429D02*
X86234667Y-32896429D01*
X85049333Y-32896429D02*
X84710666Y-32896429D01*
X84541333Y-32969000D01*
X84372000Y-33114143D01*
X84287333Y-33404429D01*
X84287333Y-33912429D01*
X84372000Y-34202714D01*
X84541333Y-34347857D01*
X84710666Y-34420429D01*
X85049333Y-34420429D01*
X85218666Y-34347857D01*
X85388000Y-34202714D01*
X85472666Y-33912429D01*
X85472666Y-33404429D01*
X85388000Y-33114143D01*
X85218666Y-32969000D01*
X85049333Y-32896429D01*
X83525333Y-34420429D02*
X83525333Y-32896429D01*
X83101999Y-32896429D01*
X82847999Y-32969000D01*
X82678666Y-33114143D01*
X82593999Y-33259286D01*
X82509333Y-33549571D01*
X82509333Y-33767286D01*
X82593999Y-34057571D01*
X82678666Y-34202714D01*
X82847999Y-34347857D01*
X83101999Y-34420429D01*
X83525333Y-34420429D01*
X81747333Y-33622143D02*
X81154666Y-33622143D01*
X80900666Y-34420429D02*
X81747333Y-34420429D01*
X81747333Y-32896429D01*
X80900666Y-32896429D01*
X118069334Y-36728857D02*
X117815334Y-36801429D01*
X117392001Y-36801429D01*
X117222668Y-36728857D01*
X117138001Y-36656286D01*
X117053334Y-36511143D01*
X117053334Y-36366000D01*
X117138001Y-36220857D01*
X117222668Y-36148286D01*
X117392001Y-36075714D01*
X117730668Y-36003143D01*
X117900001Y-35930571D01*
X117984668Y-35858000D01*
X118069334Y-35712857D01*
X118069334Y-35567714D01*
X117984668Y-35422571D01*
X117900001Y-35350000D01*
X117730668Y-35277429D01*
X117307334Y-35277429D01*
X117053334Y-35350000D01*
X116460668Y-35277429D02*
X116037335Y-36801429D01*
X115698668Y-35712857D01*
X115360001Y-36801429D01*
X114936668Y-35277429D01*
X114259335Y-36801429D02*
X114259335Y-35277429D01*
X113666668Y-35277429D02*
X112650668Y-35277429D01*
X113158668Y-36801429D02*
X113158668Y-35277429D01*
X111042001Y-36656286D02*
X111126667Y-36728857D01*
X111380667Y-36801429D01*
X111550001Y-36801429D01*
X111804001Y-36728857D01*
X111973334Y-36583714D01*
X112058001Y-36438571D01*
X112142667Y-36148286D01*
X112142667Y-35930571D01*
X112058001Y-35640286D01*
X111973334Y-35495143D01*
X111804001Y-35350000D01*
X111550001Y-35277429D01*
X111380667Y-35277429D01*
X111126667Y-35350000D01*
X111042001Y-35422571D01*
X110280001Y-36801429D02*
X110280001Y-35277429D01*
X110280001Y-36003143D02*
X109264001Y-36003143D01*
X109264001Y-36801429D02*
X109264001Y-35277429D01*
X108840667Y-36946571D02*
X107486000Y-36946571D01*
X107062667Y-36801429D02*
X107062667Y-35277429D01*
X106639333Y-35277429D01*
X106385333Y-35350000D01*
X106216000Y-35495143D01*
X106131333Y-35640286D01*
X106046667Y-35930571D01*
X106046667Y-36148286D01*
X106131333Y-36438571D01*
X106216000Y-36583714D01*
X106385333Y-36728857D01*
X106639333Y-36801429D01*
X107062667Y-36801429D01*
X105284667Y-36801429D02*
X105284667Y-35277429D01*
X104099333Y-35277429D02*
X103760666Y-35277429D01*
X103591333Y-35350000D01*
X103422000Y-35495143D01*
X103337333Y-35785429D01*
X103337333Y-36293429D01*
X103422000Y-36583714D01*
X103591333Y-36728857D01*
X103760666Y-36801429D01*
X104099333Y-36801429D01*
X104268666Y-36728857D01*
X104438000Y-36583714D01*
X104522666Y-36293429D01*
X104522666Y-35785429D01*
X104438000Y-35495143D01*
X104268666Y-35350000D01*
X104099333Y-35277429D01*
X102575333Y-36801429D02*
X102575333Y-35277429D01*
X102151999Y-35277429D01*
X101897999Y-35350000D01*
X101728666Y-35495143D01*
X101643999Y-35640286D01*
X101559333Y-35930571D01*
X101559333Y-36148286D01*
X101643999Y-36438571D01*
X101728666Y-36583714D01*
X101897999Y-36728857D01*
X102151999Y-36801429D01*
X102575333Y-36801429D01*
X100797333Y-36003143D02*
X100204666Y-36003143D01*
X99950666Y-36801429D02*
X100797333Y-36801429D01*
X100797333Y-35277429D01*
X99950666Y-35277429D01*
X18057334Y-58159857D02*
X17803334Y-58232429D01*
X17380001Y-58232429D01*
X17210668Y-58159857D01*
X17126001Y-58087286D01*
X17041334Y-57942143D01*
X17041334Y-57797000D01*
X17126001Y-57651857D01*
X17210668Y-57579286D01*
X17380001Y-57506714D01*
X17718668Y-57434143D01*
X17888001Y-57361571D01*
X17972668Y-57289000D01*
X18057334Y-57143857D01*
X18057334Y-56998714D01*
X17972668Y-56853571D01*
X17888001Y-56781000D01*
X17718668Y-56708429D01*
X17295334Y-56708429D01*
X17041334Y-56781000D01*
X16448668Y-56708429D02*
X16025335Y-58232429D01*
X15686668Y-57143857D01*
X15348001Y-58232429D01*
X14924668Y-56708429D01*
X14247335Y-58232429D02*
X14247335Y-56708429D01*
X13654668Y-56708429D02*
X12638668Y-56708429D01*
X13146668Y-58232429D02*
X13146668Y-56708429D01*
X11030001Y-58087286D02*
X11114667Y-58159857D01*
X11368667Y-58232429D01*
X11538001Y-58232429D01*
X11792001Y-58159857D01*
X11961334Y-58014714D01*
X12046001Y-57869571D01*
X12130667Y-57579286D01*
X12130667Y-57361571D01*
X12046001Y-57071286D01*
X11961334Y-56926143D01*
X11792001Y-56781000D01*
X11538001Y-56708429D01*
X11368667Y-56708429D01*
X11114667Y-56781000D01*
X11030001Y-56853571D01*
X10268001Y-58232429D02*
X10268001Y-56708429D01*
X10268001Y-57434143D02*
X9252001Y-57434143D01*
X9252001Y-58232429D02*
X9252001Y-56708429D01*
X8828667Y-58377571D02*
X7474000Y-58377571D01*
X7050667Y-58232429D02*
X7050667Y-56708429D01*
X6627333Y-56708429D01*
X6373333Y-56781000D01*
X6204000Y-56926143D01*
X6119333Y-57071286D01*
X6034667Y-57361571D01*
X6034667Y-57579286D01*
X6119333Y-57869571D01*
X6204000Y-58014714D01*
X6373333Y-58159857D01*
X6627333Y-58232429D01*
X7050667Y-58232429D01*
X5272667Y-58232429D02*
X5272667Y-56708429D01*
X4087333Y-56708429D02*
X3748666Y-56708429D01*
X3579333Y-56781000D01*
X3410000Y-56926143D01*
X3325333Y-57216429D01*
X3325333Y-57724429D01*
X3410000Y-58014714D01*
X3579333Y-58159857D01*
X3748666Y-58232429D01*
X4087333Y-58232429D01*
X4256666Y-58159857D01*
X4426000Y-58014714D01*
X4510666Y-57724429D01*
X4510666Y-57216429D01*
X4426000Y-56926143D01*
X4256666Y-56781000D01*
X4087333Y-56708429D01*
X2563333Y-58232429D02*
X2563333Y-56708429D01*
X2139999Y-56708429D01*
X1885999Y-56781000D01*
X1716666Y-56926143D01*
X1631999Y-57071286D01*
X1547333Y-57361571D01*
X1547333Y-57579286D01*
X1631999Y-57869571D01*
X1716666Y-58014714D01*
X1885999Y-58159857D01*
X2139999Y-58232429D01*
X2563333Y-58232429D01*
X785333Y-57434143D02*
X192666Y-57434143D01*
X-61334Y-58232429D02*
X785333Y-58232429D01*
X785333Y-56708429D01*
X-61334Y-56708429D01*
X41869334Y-58159857D02*
X41615334Y-58232429D01*
X41192001Y-58232429D01*
X41022668Y-58159857D01*
X40938001Y-58087286D01*
X40853334Y-57942143D01*
X40853334Y-57797000D01*
X40938001Y-57651857D01*
X41022668Y-57579286D01*
X41192001Y-57506714D01*
X41530668Y-57434143D01*
X41700001Y-57361571D01*
X41784668Y-57289000D01*
X41869334Y-57143857D01*
X41869334Y-56998714D01*
X41784668Y-56853571D01*
X41700001Y-56781000D01*
X41530668Y-56708429D01*
X41107334Y-56708429D01*
X40853334Y-56781000D01*
X40260668Y-56708429D02*
X39837335Y-58232429D01*
X39498668Y-57143857D01*
X39160001Y-58232429D01*
X38736668Y-56708429D01*
X38059335Y-58232429D02*
X38059335Y-56708429D01*
X37466668Y-56708429D02*
X36450668Y-56708429D01*
X36958668Y-58232429D02*
X36958668Y-56708429D01*
X34842001Y-58087286D02*
X34926667Y-58159857D01*
X35180667Y-58232429D01*
X35350001Y-58232429D01*
X35604001Y-58159857D01*
X35773334Y-58014714D01*
X35858001Y-57869571D01*
X35942667Y-57579286D01*
X35942667Y-57361571D01*
X35858001Y-57071286D01*
X35773334Y-56926143D01*
X35604001Y-56781000D01*
X35350001Y-56708429D01*
X35180667Y-56708429D01*
X34926667Y-56781000D01*
X34842001Y-56853571D01*
X34080001Y-58232429D02*
X34080001Y-56708429D01*
X34080001Y-57434143D02*
X33064001Y-57434143D01*
X33064001Y-58232429D02*
X33064001Y-56708429D01*
X32640667Y-58377571D02*
X31286000Y-58377571D01*
X30862667Y-58232429D02*
X30862667Y-56708429D01*
X30439333Y-56708429D01*
X30185333Y-56781000D01*
X30016000Y-56926143D01*
X29931333Y-57071286D01*
X29846667Y-57361571D01*
X29846667Y-57579286D01*
X29931333Y-57869571D01*
X30016000Y-58014714D01*
X30185333Y-58159857D01*
X30439333Y-58232429D01*
X30862667Y-58232429D01*
X29084667Y-58232429D02*
X29084667Y-56708429D01*
X27899333Y-56708429D02*
X27560666Y-56708429D01*
X27391333Y-56781000D01*
X27222000Y-56926143D01*
X27137333Y-57216429D01*
X27137333Y-57724429D01*
X27222000Y-58014714D01*
X27391333Y-58159857D01*
X27560666Y-58232429D01*
X27899333Y-58232429D01*
X28068666Y-58159857D01*
X28238000Y-58014714D01*
X28322666Y-57724429D01*
X28322666Y-57216429D01*
X28238000Y-56926143D01*
X28068666Y-56781000D01*
X27899333Y-56708429D01*
X26375333Y-58232429D02*
X26375333Y-56708429D01*
X25951999Y-56708429D01*
X25697999Y-56781000D01*
X25528666Y-56926143D01*
X25443999Y-57071286D01*
X25359333Y-57361571D01*
X25359333Y-57579286D01*
X25443999Y-57869571D01*
X25528666Y-58014714D01*
X25697999Y-58159857D01*
X25951999Y-58232429D01*
X26375333Y-58232429D01*
X24597333Y-57434143D02*
X24004666Y-57434143D01*
X23750666Y-58232429D02*
X24597333Y-58232429D01*
X24597333Y-56708429D01*
X23750666Y-56708429D01*
X60919334Y-53397857D02*
X60665334Y-53470429D01*
X60242001Y-53470429D01*
X60072668Y-53397857D01*
X59988001Y-53325286D01*
X59903334Y-53180143D01*
X59903334Y-53035000D01*
X59988001Y-52889857D01*
X60072668Y-52817286D01*
X60242001Y-52744714D01*
X60580668Y-52672143D01*
X60750001Y-52599571D01*
X60834668Y-52527000D01*
X60919334Y-52381857D01*
X60919334Y-52236714D01*
X60834668Y-52091571D01*
X60750001Y-52019000D01*
X60580668Y-51946429D01*
X60157334Y-51946429D01*
X59903334Y-52019000D01*
X59310668Y-51946429D02*
X58887335Y-53470429D01*
X58548668Y-52381857D01*
X58210001Y-53470429D01*
X57786668Y-51946429D01*
X57109335Y-53470429D02*
X57109335Y-51946429D01*
X56516668Y-51946429D02*
X55500668Y-51946429D01*
X56008668Y-53470429D02*
X56008668Y-51946429D01*
X53892001Y-53325286D02*
X53976667Y-53397857D01*
X54230667Y-53470429D01*
X54400001Y-53470429D01*
X54654001Y-53397857D01*
X54823334Y-53252714D01*
X54908001Y-53107571D01*
X54992667Y-52817286D01*
X54992667Y-52599571D01*
X54908001Y-52309286D01*
X54823334Y-52164143D01*
X54654001Y-52019000D01*
X54400001Y-51946429D01*
X54230667Y-51946429D01*
X53976667Y-52019000D01*
X53892001Y-52091571D01*
X53130001Y-53470429D02*
X53130001Y-51946429D01*
X53130001Y-52672143D02*
X52114001Y-52672143D01*
X52114001Y-53470429D02*
X52114001Y-51946429D01*
X51690667Y-53615571D02*
X50336000Y-53615571D01*
X49912667Y-53470429D02*
X49912667Y-51946429D01*
X49489333Y-51946429D01*
X49235333Y-52019000D01*
X49066000Y-52164143D01*
X48981333Y-52309286D01*
X48896667Y-52599571D01*
X48896667Y-52817286D01*
X48981333Y-53107571D01*
X49066000Y-53252714D01*
X49235333Y-53397857D01*
X49489333Y-53470429D01*
X49912667Y-53470429D01*
X48134667Y-53470429D02*
X48134667Y-51946429D01*
X46949333Y-51946429D02*
X46610666Y-51946429D01*
X46441333Y-52019000D01*
X46272000Y-52164143D01*
X46187333Y-52454429D01*
X46187333Y-52962429D01*
X46272000Y-53252714D01*
X46441333Y-53397857D01*
X46610666Y-53470429D01*
X46949333Y-53470429D01*
X47118666Y-53397857D01*
X47288000Y-53252714D01*
X47372666Y-52962429D01*
X47372666Y-52454429D01*
X47288000Y-52164143D01*
X47118666Y-52019000D01*
X46949333Y-51946429D01*
X45425333Y-53470429D02*
X45425333Y-51946429D01*
X45001999Y-51946429D01*
X44747999Y-52019000D01*
X44578666Y-52164143D01*
X44493999Y-52309286D01*
X44409333Y-52599571D01*
X44409333Y-52817286D01*
X44493999Y-53107571D01*
X44578666Y-53252714D01*
X44747999Y-53397857D01*
X45001999Y-53470429D01*
X45425333Y-53470429D01*
X43647333Y-52672143D02*
X43054666Y-52672143D01*
X42800666Y-53470429D02*
X43647333Y-53470429D01*
X43647333Y-51946429D01*
X42800666Y-51946429D01*
X79969334Y-51006857D02*
X79715334Y-51079429D01*
X79292001Y-51079429D01*
X79122668Y-51006857D01*
X79038001Y-50934286D01*
X78953334Y-50789143D01*
X78953334Y-50644000D01*
X79038001Y-50498857D01*
X79122668Y-50426286D01*
X79292001Y-50353714D01*
X79630668Y-50281143D01*
X79800001Y-50208571D01*
X79884668Y-50136000D01*
X79969334Y-49990857D01*
X79969334Y-49845714D01*
X79884668Y-49700571D01*
X79800001Y-49628000D01*
X79630668Y-49555429D01*
X79207334Y-49555429D01*
X78953334Y-49628000D01*
X78360668Y-49555429D02*
X77937335Y-51079429D01*
X77598668Y-49990857D01*
X77260001Y-51079429D01*
X76836668Y-49555429D01*
X76159335Y-51079429D02*
X76159335Y-49555429D01*
X75566668Y-49555429D02*
X74550668Y-49555429D01*
X75058668Y-51079429D02*
X75058668Y-49555429D01*
X72942001Y-50934286D02*
X73026667Y-51006857D01*
X73280667Y-51079429D01*
X73450001Y-51079429D01*
X73704001Y-51006857D01*
X73873334Y-50861714D01*
X73958001Y-50716571D01*
X74042667Y-50426286D01*
X74042667Y-50208571D01*
X73958001Y-49918286D01*
X73873334Y-49773143D01*
X73704001Y-49628000D01*
X73450001Y-49555429D01*
X73280667Y-49555429D01*
X73026667Y-49628000D01*
X72942001Y-49700571D01*
X72180001Y-51079429D02*
X72180001Y-49555429D01*
X72180001Y-50281143D02*
X71164001Y-50281143D01*
X71164001Y-51079429D02*
X71164001Y-49555429D01*
X70740667Y-51224571D02*
X69386000Y-51224571D01*
X68962667Y-51079429D02*
X68962667Y-49555429D01*
X68539333Y-49555429D01*
X68285333Y-49628000D01*
X68116000Y-49773143D01*
X68031333Y-49918286D01*
X67946667Y-50208571D01*
X67946667Y-50426286D01*
X68031333Y-50716571D01*
X68116000Y-50861714D01*
X68285333Y-51006857D01*
X68539333Y-51079429D01*
X68962667Y-51079429D01*
X67184667Y-51079429D02*
X67184667Y-49555429D01*
X65999333Y-49555429D02*
X65660666Y-49555429D01*
X65491333Y-49628000D01*
X65322000Y-49773143D01*
X65237333Y-50063429D01*
X65237333Y-50571429D01*
X65322000Y-50861714D01*
X65491333Y-51006857D01*
X65660666Y-51079429D01*
X65999333Y-51079429D01*
X66168666Y-51006857D01*
X66338000Y-50861714D01*
X66422666Y-50571429D01*
X66422666Y-50063429D01*
X66338000Y-49773143D01*
X66168666Y-49628000D01*
X65999333Y-49555429D01*
X64475333Y-51079429D02*
X64475333Y-49555429D01*
X64051999Y-49555429D01*
X63797999Y-49628000D01*
X63628666Y-49773143D01*
X63543999Y-49918286D01*
X63459333Y-50208571D01*
X63459333Y-50426286D01*
X63543999Y-50716571D01*
X63628666Y-50861714D01*
X63797999Y-51006857D01*
X64051999Y-51079429D01*
X64475333Y-51079429D01*
X62697333Y-50281143D02*
X62104666Y-50281143D01*
X61850666Y-51079429D02*
X62697333Y-51079429D01*
X62697333Y-49555429D01*
X61850666Y-49555429D01*
X99019334Y-53397857D02*
X98765334Y-53470429D01*
X98342001Y-53470429D01*
X98172668Y-53397857D01*
X98088001Y-53325286D01*
X98003334Y-53180143D01*
X98003334Y-53035000D01*
X98088001Y-52889857D01*
X98172668Y-52817286D01*
X98342001Y-52744714D01*
X98680668Y-52672143D01*
X98850001Y-52599571D01*
X98934668Y-52527000D01*
X99019334Y-52381857D01*
X99019334Y-52236714D01*
X98934668Y-52091571D01*
X98850001Y-52019000D01*
X98680668Y-51946429D01*
X98257334Y-51946429D01*
X98003334Y-52019000D01*
X97410668Y-51946429D02*
X96987335Y-53470429D01*
X96648668Y-52381857D01*
X96310001Y-53470429D01*
X95886668Y-51946429D01*
X95209335Y-53470429D02*
X95209335Y-51946429D01*
X94616668Y-51946429D02*
X93600668Y-51946429D01*
X94108668Y-53470429D02*
X94108668Y-51946429D01*
X91992001Y-53325286D02*
X92076667Y-53397857D01*
X92330667Y-53470429D01*
X92500001Y-53470429D01*
X92754001Y-53397857D01*
X92923334Y-53252714D01*
X93008001Y-53107571D01*
X93092667Y-52817286D01*
X93092667Y-52599571D01*
X93008001Y-52309286D01*
X92923334Y-52164143D01*
X92754001Y-52019000D01*
X92500001Y-51946429D01*
X92330667Y-51946429D01*
X92076667Y-52019000D01*
X91992001Y-52091571D01*
X91230001Y-53470429D02*
X91230001Y-51946429D01*
X91230001Y-52672143D02*
X90214001Y-52672143D01*
X90214001Y-53470429D02*
X90214001Y-51946429D01*
X89790667Y-53615571D02*
X88436000Y-53615571D01*
X88012667Y-53470429D02*
X88012667Y-51946429D01*
X87589333Y-51946429D01*
X87335333Y-52019000D01*
X87166000Y-52164143D01*
X87081333Y-52309286D01*
X86996667Y-52599571D01*
X86996667Y-52817286D01*
X87081333Y-53107571D01*
X87166000Y-53252714D01*
X87335333Y-53397857D01*
X87589333Y-53470429D01*
X88012667Y-53470429D01*
X86234667Y-53470429D02*
X86234667Y-51946429D01*
X85049333Y-51946429D02*
X84710666Y-51946429D01*
X84541333Y-52019000D01*
X84372000Y-52164143D01*
X84287333Y-52454429D01*
X84287333Y-52962429D01*
X84372000Y-53252714D01*
X84541333Y-53397857D01*
X84710666Y-53470429D01*
X85049333Y-53470429D01*
X85218666Y-53397857D01*
X85388000Y-53252714D01*
X85472666Y-52962429D01*
X85472666Y-52454429D01*
X85388000Y-52164143D01*
X85218666Y-52019000D01*
X85049333Y-51946429D01*
X83525333Y-53470429D02*
X83525333Y-51946429D01*
X83101999Y-51946429D01*
X82847999Y-52019000D01*
X82678666Y-52164143D01*
X82593999Y-52309286D01*
X82509333Y-52599571D01*
X82509333Y-52817286D01*
X82593999Y-53107571D01*
X82678666Y-53252714D01*
X82847999Y-53397857D01*
X83101999Y-53470429D01*
X83525333Y-53470429D01*
X81747333Y-52672143D02*
X81154666Y-52672143D01*
X80900666Y-53470429D02*
X81747333Y-53470429D01*
X81747333Y-51946429D01*
X80900666Y-51946429D01*
X118160334Y-55778857D02*
X117906334Y-55851429D01*
X117483001Y-55851429D01*
X117313668Y-55778857D01*
X117229001Y-55706286D01*
X117144334Y-55561143D01*
X117144334Y-55416000D01*
X117229001Y-55270857D01*
X117313668Y-55198286D01*
X117483001Y-55125714D01*
X117821668Y-55053143D01*
X117991001Y-54980571D01*
X118075668Y-54908000D01*
X118160334Y-54762857D01*
X118160334Y-54617714D01*
X118075668Y-54472571D01*
X117991001Y-54400000D01*
X117821668Y-54327429D01*
X117398334Y-54327429D01*
X117144334Y-54400000D01*
X116551668Y-54327429D02*
X116128335Y-55851429D01*
X115789668Y-54762857D01*
X115451001Y-55851429D01*
X115027668Y-54327429D01*
X114350335Y-55851429D02*
X114350335Y-54327429D01*
X113757668Y-54327429D02*
X112741668Y-54327429D01*
X113249668Y-55851429D02*
X113249668Y-54327429D01*
X111133001Y-55706286D02*
X111217667Y-55778857D01*
X111471667Y-55851429D01*
X111641001Y-55851429D01*
X111895001Y-55778857D01*
X112064334Y-55633714D01*
X112149001Y-55488571D01*
X112233667Y-55198286D01*
X112233667Y-54980571D01*
X112149001Y-54690286D01*
X112064334Y-54545143D01*
X111895001Y-54400000D01*
X111641001Y-54327429D01*
X111471667Y-54327429D01*
X111217667Y-54400000D01*
X111133001Y-54472571D01*
X110371001Y-55851429D02*
X110371001Y-54327429D01*
X110371001Y-55053143D02*
X109355001Y-55053143D01*
X109355001Y-55851429D02*
X109355001Y-54327429D01*
X108931667Y-55996571D02*
X107577000Y-55996571D01*
X107153667Y-55851429D02*
X107153667Y-54327429D01*
X106730333Y-54327429D01*
X106476333Y-54400000D01*
X106307000Y-54545143D01*
X106222333Y-54690286D01*
X106137667Y-54980571D01*
X106137667Y-55198286D01*
X106222333Y-55488571D01*
X106307000Y-55633714D01*
X106476333Y-55778857D01*
X106730333Y-55851429D01*
X107153667Y-55851429D01*
X105375667Y-55851429D02*
X105375667Y-54327429D01*
X104190333Y-54327429D02*
X103851666Y-54327429D01*
X103682333Y-54400000D01*
X103513000Y-54545143D01*
X103428333Y-54835429D01*
X103428333Y-55343429D01*
X103513000Y-55633714D01*
X103682333Y-55778857D01*
X103851666Y-55851429D01*
X104190333Y-55851429D01*
X104359666Y-55778857D01*
X104529000Y-55633714D01*
X104613666Y-55343429D01*
X104613666Y-54835429D01*
X104529000Y-54545143D01*
X104359666Y-54400000D01*
X104190333Y-54327429D01*
X102666333Y-55851429D02*
X102666333Y-54327429D01*
X102242999Y-54327429D01*
X101988999Y-54400000D01*
X101819666Y-54545143D01*
X101734999Y-54690286D01*
X101650333Y-54980571D01*
X101650333Y-55198286D01*
X101734999Y-55488571D01*
X101819666Y-55633714D01*
X101988999Y-55778857D01*
X102242999Y-55851429D01*
X102666333Y-55851429D01*
X100888333Y-55053143D02*
X100295666Y-55053143D01*
X100041666Y-55851429D02*
X100888333Y-55851429D01*
X100888333Y-54327429D01*
X100041666Y-54327429D01*
X137119334Y-41491857D02*
X136865334Y-41564429D01*
X136442001Y-41564429D01*
X136272668Y-41491857D01*
X136188001Y-41419286D01*
X136103334Y-41274143D01*
X136103334Y-41129000D01*
X136188001Y-40983857D01*
X136272668Y-40911286D01*
X136442001Y-40838714D01*
X136780668Y-40766143D01*
X136950001Y-40693571D01*
X137034668Y-40621000D01*
X137119334Y-40475857D01*
X137119334Y-40330714D01*
X137034668Y-40185571D01*
X136950001Y-40113000D01*
X136780668Y-40040429D01*
X136357334Y-40040429D01*
X136103334Y-40113000D01*
X135510668Y-40040429D02*
X135087335Y-41564429D01*
X134748668Y-40475857D01*
X134410001Y-41564429D01*
X133986668Y-40040429D01*
X133309335Y-41564429D02*
X133309335Y-40040429D01*
X132716668Y-40040429D02*
X131700668Y-40040429D01*
X132208668Y-41564429D02*
X132208668Y-40040429D01*
X130092001Y-41419286D02*
X130176667Y-41491857D01*
X130430667Y-41564429D01*
X130600001Y-41564429D01*
X130854001Y-41491857D01*
X131023334Y-41346714D01*
X131108001Y-41201571D01*
X131192667Y-40911286D01*
X131192667Y-40693571D01*
X131108001Y-40403286D01*
X131023334Y-40258143D01*
X130854001Y-40113000D01*
X130600001Y-40040429D01*
X130430667Y-40040429D01*
X130176667Y-40113000D01*
X130092001Y-40185571D01*
X129330001Y-41564429D02*
X129330001Y-40040429D01*
X129330001Y-40766143D02*
X128314001Y-40766143D01*
X128314001Y-41564429D02*
X128314001Y-40040429D01*
X127890667Y-41709571D02*
X126536000Y-41709571D01*
X126112667Y-41564429D02*
X126112667Y-40040429D01*
X125689333Y-40040429D01*
X125435333Y-40113000D01*
X125266000Y-40258143D01*
X125181333Y-40403286D01*
X125096667Y-40693571D01*
X125096667Y-40911286D01*
X125181333Y-41201571D01*
X125266000Y-41346714D01*
X125435333Y-41491857D01*
X125689333Y-41564429D01*
X126112667Y-41564429D01*
X124334667Y-41564429D02*
X124334667Y-40040429D01*
X123149333Y-40040429D02*
X122810666Y-40040429D01*
X122641333Y-40113000D01*
X122472000Y-40258143D01*
X122387333Y-40548429D01*
X122387333Y-41056429D01*
X122472000Y-41346714D01*
X122641333Y-41491857D01*
X122810666Y-41564429D01*
X123149333Y-41564429D01*
X123318666Y-41491857D01*
X123488000Y-41346714D01*
X123572666Y-41056429D01*
X123572666Y-40548429D01*
X123488000Y-40258143D01*
X123318666Y-40113000D01*
X123149333Y-40040429D01*
X121625333Y-41564429D02*
X121625333Y-40040429D01*
X121201999Y-40040429D01*
X120947999Y-40113000D01*
X120778666Y-40258143D01*
X120693999Y-40403286D01*
X120609333Y-40693571D01*
X120609333Y-40911286D01*
X120693999Y-41201571D01*
X120778666Y-41346714D01*
X120947999Y-41491857D01*
X121201999Y-41564429D01*
X121625333Y-41564429D01*
X119847333Y-40766143D02*
X119254666Y-40766143D01*
X119000666Y-41564429D02*
X119847333Y-41564429D01*
X119847333Y-40040429D01*
X119000666Y-40040429D01*
X18057334Y-77209857D02*
X17803334Y-77282429D01*
X17380001Y-77282429D01*
X17210668Y-77209857D01*
X17126001Y-77137286D01*
X17041334Y-76992143D01*
X17041334Y-76847000D01*
X17126001Y-76701857D01*
X17210668Y-76629286D01*
X17380001Y-76556714D01*
X17718668Y-76484143D01*
X17888001Y-76411571D01*
X17972668Y-76339000D01*
X18057334Y-76193857D01*
X18057334Y-76048714D01*
X17972668Y-75903571D01*
X17888001Y-75831000D01*
X17718668Y-75758429D01*
X17295334Y-75758429D01*
X17041334Y-75831000D01*
X16448668Y-75758429D02*
X16025335Y-77282429D01*
X15686668Y-76193857D01*
X15348001Y-77282429D01*
X14924668Y-75758429D01*
X14247335Y-77282429D02*
X14247335Y-75758429D01*
X13654668Y-75758429D02*
X12638668Y-75758429D01*
X13146668Y-77282429D02*
X13146668Y-75758429D01*
X11030001Y-77137286D02*
X11114667Y-77209857D01*
X11368667Y-77282429D01*
X11538001Y-77282429D01*
X11792001Y-77209857D01*
X11961334Y-77064714D01*
X12046001Y-76919571D01*
X12130667Y-76629286D01*
X12130667Y-76411571D01*
X12046001Y-76121286D01*
X11961334Y-75976143D01*
X11792001Y-75831000D01*
X11538001Y-75758429D01*
X11368667Y-75758429D01*
X11114667Y-75831000D01*
X11030001Y-75903571D01*
X10268001Y-77282429D02*
X10268001Y-75758429D01*
X10268001Y-76484143D02*
X9252001Y-76484143D01*
X9252001Y-77282429D02*
X9252001Y-75758429D01*
X8828667Y-77427571D02*
X7474000Y-77427571D01*
X7050667Y-77282429D02*
X7050667Y-75758429D01*
X6627333Y-75758429D01*
X6373333Y-75831000D01*
X6204000Y-75976143D01*
X6119333Y-76121286D01*
X6034667Y-76411571D01*
X6034667Y-76629286D01*
X6119333Y-76919571D01*
X6204000Y-77064714D01*
X6373333Y-77209857D01*
X6627333Y-77282429D01*
X7050667Y-77282429D01*
X5272667Y-77282429D02*
X5272667Y-75758429D01*
X4087333Y-75758429D02*
X3748666Y-75758429D01*
X3579333Y-75831000D01*
X3410000Y-75976143D01*
X3325333Y-76266429D01*
X3325333Y-76774429D01*
X3410000Y-77064714D01*
X3579333Y-77209857D01*
X3748666Y-77282429D01*
X4087333Y-77282429D01*
X4256666Y-77209857D01*
X4426000Y-77064714D01*
X4510666Y-76774429D01*
X4510666Y-76266429D01*
X4426000Y-75976143D01*
X4256666Y-75831000D01*
X4087333Y-75758429D01*
X2563333Y-77282429D02*
X2563333Y-75758429D01*
X2139999Y-75758429D01*
X1885999Y-75831000D01*
X1716666Y-75976143D01*
X1631999Y-76121286D01*
X1547333Y-76411571D01*
X1547333Y-76629286D01*
X1631999Y-76919571D01*
X1716666Y-77064714D01*
X1885999Y-77209857D01*
X2139999Y-77282429D01*
X2563333Y-77282429D01*
X785333Y-76484143D02*
X192666Y-76484143D01*
X-61334Y-77282429D02*
X785333Y-77282429D01*
X785333Y-75758429D01*
X-61334Y-75758429D01*
X41869334Y-77209857D02*
X41615334Y-77282429D01*
X41192001Y-77282429D01*
X41022668Y-77209857D01*
X40938001Y-77137286D01*
X40853334Y-76992143D01*
X40853334Y-76847000D01*
X40938001Y-76701857D01*
X41022668Y-76629286D01*
X41192001Y-76556714D01*
X41530668Y-76484143D01*
X41700001Y-76411571D01*
X41784668Y-76339000D01*
X41869334Y-76193857D01*
X41869334Y-76048714D01*
X41784668Y-75903571D01*
X41700001Y-75831000D01*
X41530668Y-75758429D01*
X41107334Y-75758429D01*
X40853334Y-75831000D01*
X40260668Y-75758429D02*
X39837335Y-77282429D01*
X39498668Y-76193857D01*
X39160001Y-77282429D01*
X38736668Y-75758429D01*
X38059335Y-77282429D02*
X38059335Y-75758429D01*
X37466668Y-75758429D02*
X36450668Y-75758429D01*
X36958668Y-77282429D02*
X36958668Y-75758429D01*
X34842001Y-77137286D02*
X34926667Y-77209857D01*
X35180667Y-77282429D01*
X35350001Y-77282429D01*
X35604001Y-77209857D01*
X35773334Y-77064714D01*
X35858001Y-76919571D01*
X35942667Y-76629286D01*
X35942667Y-76411571D01*
X35858001Y-76121286D01*
X35773334Y-75976143D01*
X35604001Y-75831000D01*
X35350001Y-75758429D01*
X35180667Y-75758429D01*
X34926667Y-75831000D01*
X34842001Y-75903571D01*
X34080001Y-77282429D02*
X34080001Y-75758429D01*
X34080001Y-76484143D02*
X33064001Y-76484143D01*
X33064001Y-77282429D02*
X33064001Y-75758429D01*
X32640667Y-77427571D02*
X31286000Y-77427571D01*
X30862667Y-77282429D02*
X30862667Y-75758429D01*
X30439333Y-75758429D01*
X30185333Y-75831000D01*
X30016000Y-75976143D01*
X29931333Y-76121286D01*
X29846667Y-76411571D01*
X29846667Y-76629286D01*
X29931333Y-76919571D01*
X30016000Y-77064714D01*
X30185333Y-77209857D01*
X30439333Y-77282429D01*
X30862667Y-77282429D01*
X29084667Y-77282429D02*
X29084667Y-75758429D01*
X27899333Y-75758429D02*
X27560666Y-75758429D01*
X27391333Y-75831000D01*
X27222000Y-75976143D01*
X27137333Y-76266429D01*
X27137333Y-76774429D01*
X27222000Y-77064714D01*
X27391333Y-77209857D01*
X27560666Y-77282429D01*
X27899333Y-77282429D01*
X28068666Y-77209857D01*
X28238000Y-77064714D01*
X28322666Y-76774429D01*
X28322666Y-76266429D01*
X28238000Y-75976143D01*
X28068666Y-75831000D01*
X27899333Y-75758429D01*
X26375333Y-77282429D02*
X26375333Y-75758429D01*
X25951999Y-75758429D01*
X25697999Y-75831000D01*
X25528666Y-75976143D01*
X25443999Y-76121286D01*
X25359333Y-76411571D01*
X25359333Y-76629286D01*
X25443999Y-76919571D01*
X25528666Y-77064714D01*
X25697999Y-77209857D01*
X25951999Y-77282429D01*
X26375333Y-77282429D01*
X24597333Y-76484143D02*
X24004666Y-76484143D01*
X23750666Y-77282429D02*
X24597333Y-77282429D01*
X24597333Y-75758429D01*
X23750666Y-75758429D01*
X60919334Y-72447857D02*
X60665334Y-72520429D01*
X60242001Y-72520429D01*
X60072668Y-72447857D01*
X59988001Y-72375286D01*
X59903334Y-72230143D01*
X59903334Y-72085000D01*
X59988001Y-71939857D01*
X60072668Y-71867286D01*
X60242001Y-71794714D01*
X60580668Y-71722143D01*
X60750001Y-71649571D01*
X60834668Y-71577000D01*
X60919334Y-71431857D01*
X60919334Y-71286714D01*
X60834668Y-71141571D01*
X60750001Y-71069000D01*
X60580668Y-70996429D01*
X60157334Y-70996429D01*
X59903334Y-71069000D01*
X59310668Y-70996429D02*
X58887335Y-72520429D01*
X58548668Y-71431857D01*
X58210001Y-72520429D01*
X57786668Y-70996429D01*
X57109335Y-72520429D02*
X57109335Y-70996429D01*
X56516668Y-70996429D02*
X55500668Y-70996429D01*
X56008668Y-72520429D02*
X56008668Y-70996429D01*
X53892001Y-72375286D02*
X53976667Y-72447857D01*
X54230667Y-72520429D01*
X54400001Y-72520429D01*
X54654001Y-72447857D01*
X54823334Y-72302714D01*
X54908001Y-72157571D01*
X54992667Y-71867286D01*
X54992667Y-71649571D01*
X54908001Y-71359286D01*
X54823334Y-71214143D01*
X54654001Y-71069000D01*
X54400001Y-70996429D01*
X54230667Y-70996429D01*
X53976667Y-71069000D01*
X53892001Y-71141571D01*
X53130001Y-72520429D02*
X53130001Y-70996429D01*
X53130001Y-71722143D02*
X52114001Y-71722143D01*
X52114001Y-72520429D02*
X52114001Y-70996429D01*
X51690667Y-72665571D02*
X50336000Y-72665571D01*
X49912667Y-72520429D02*
X49912667Y-70996429D01*
X49489333Y-70996429D01*
X49235333Y-71069000D01*
X49066000Y-71214143D01*
X48981333Y-71359286D01*
X48896667Y-71649571D01*
X48896667Y-71867286D01*
X48981333Y-72157571D01*
X49066000Y-72302714D01*
X49235333Y-72447857D01*
X49489333Y-72520429D01*
X49912667Y-72520429D01*
X48134667Y-72520429D02*
X48134667Y-70996429D01*
X46949333Y-70996429D02*
X46610666Y-70996429D01*
X46441333Y-71069000D01*
X46272000Y-71214143D01*
X46187333Y-71504429D01*
X46187333Y-72012429D01*
X46272000Y-72302714D01*
X46441333Y-72447857D01*
X46610666Y-72520429D01*
X46949333Y-72520429D01*
X47118666Y-72447857D01*
X47288000Y-72302714D01*
X47372666Y-72012429D01*
X47372666Y-71504429D01*
X47288000Y-71214143D01*
X47118666Y-71069000D01*
X46949333Y-70996429D01*
X45425333Y-72520429D02*
X45425333Y-70996429D01*
X45001999Y-70996429D01*
X44747999Y-71069000D01*
X44578666Y-71214143D01*
X44493999Y-71359286D01*
X44409333Y-71649571D01*
X44409333Y-71867286D01*
X44493999Y-72157571D01*
X44578666Y-72302714D01*
X44747999Y-72447857D01*
X45001999Y-72520429D01*
X45425333Y-72520429D01*
X43647333Y-71722143D02*
X43054666Y-71722143D01*
X42800666Y-72520429D02*
X43647333Y-72520429D01*
X43647333Y-70996429D01*
X42800666Y-70996429D01*
X79969334Y-70056857D02*
X79715334Y-70129429D01*
X79292001Y-70129429D01*
X79122668Y-70056857D01*
X79038001Y-69984286D01*
X78953334Y-69839143D01*
X78953334Y-69694000D01*
X79038001Y-69548857D01*
X79122668Y-69476286D01*
X79292001Y-69403714D01*
X79630668Y-69331143D01*
X79800001Y-69258571D01*
X79884668Y-69186000D01*
X79969334Y-69040857D01*
X79969334Y-68895714D01*
X79884668Y-68750571D01*
X79800001Y-68678000D01*
X79630668Y-68605429D01*
X79207334Y-68605429D01*
X78953334Y-68678000D01*
X78360668Y-68605429D02*
X77937335Y-70129429D01*
X77598668Y-69040857D01*
X77260001Y-70129429D01*
X76836668Y-68605429D01*
X76159335Y-70129429D02*
X76159335Y-68605429D01*
X75566668Y-68605429D02*
X74550668Y-68605429D01*
X75058668Y-70129429D02*
X75058668Y-68605429D01*
X72942001Y-69984286D02*
X73026667Y-70056857D01*
X73280667Y-70129429D01*
X73450001Y-70129429D01*
X73704001Y-70056857D01*
X73873334Y-69911714D01*
X73958001Y-69766571D01*
X74042667Y-69476286D01*
X74042667Y-69258571D01*
X73958001Y-68968286D01*
X73873334Y-68823143D01*
X73704001Y-68678000D01*
X73450001Y-68605429D01*
X73280667Y-68605429D01*
X73026667Y-68678000D01*
X72942001Y-68750571D01*
X72180001Y-70129429D02*
X72180001Y-68605429D01*
X72180001Y-69331143D02*
X71164001Y-69331143D01*
X71164001Y-70129429D02*
X71164001Y-68605429D01*
X70740667Y-70274571D02*
X69386000Y-70274571D01*
X68962667Y-70129429D02*
X68962667Y-68605429D01*
X68539333Y-68605429D01*
X68285333Y-68678000D01*
X68116000Y-68823143D01*
X68031333Y-68968286D01*
X67946667Y-69258571D01*
X67946667Y-69476286D01*
X68031333Y-69766571D01*
X68116000Y-69911714D01*
X68285333Y-70056857D01*
X68539333Y-70129429D01*
X68962667Y-70129429D01*
X67184667Y-70129429D02*
X67184667Y-68605429D01*
X65999333Y-68605429D02*
X65660666Y-68605429D01*
X65491333Y-68678000D01*
X65322000Y-68823143D01*
X65237333Y-69113429D01*
X65237333Y-69621429D01*
X65322000Y-69911714D01*
X65491333Y-70056857D01*
X65660666Y-70129429D01*
X65999333Y-70129429D01*
X66168666Y-70056857D01*
X66338000Y-69911714D01*
X66422666Y-69621429D01*
X66422666Y-69113429D01*
X66338000Y-68823143D01*
X66168666Y-68678000D01*
X65999333Y-68605429D01*
X64475333Y-70129429D02*
X64475333Y-68605429D01*
X64051999Y-68605429D01*
X63797999Y-68678000D01*
X63628666Y-68823143D01*
X63543999Y-68968286D01*
X63459333Y-69258571D01*
X63459333Y-69476286D01*
X63543999Y-69766571D01*
X63628666Y-69911714D01*
X63797999Y-70056857D01*
X64051999Y-70129429D01*
X64475333Y-70129429D01*
X62697333Y-69331143D02*
X62104666Y-69331143D01*
X61850666Y-70129429D02*
X62697333Y-70129429D01*
X62697333Y-68605429D01*
X61850666Y-68605429D01*
X99019334Y-72447857D02*
X98765334Y-72520429D01*
X98342001Y-72520429D01*
X98172668Y-72447857D01*
X98088001Y-72375286D01*
X98003334Y-72230143D01*
X98003334Y-72085000D01*
X98088001Y-71939857D01*
X98172668Y-71867286D01*
X98342001Y-71794714D01*
X98680668Y-71722143D01*
X98850001Y-71649571D01*
X98934668Y-71577000D01*
X99019334Y-71431857D01*
X99019334Y-71286714D01*
X98934668Y-71141571D01*
X98850001Y-71069000D01*
X98680668Y-70996429D01*
X98257334Y-70996429D01*
X98003334Y-71069000D01*
X97410668Y-70996429D02*
X96987335Y-72520429D01*
X96648668Y-71431857D01*
X96310001Y-72520429D01*
X95886668Y-70996429D01*
X95209335Y-72520429D02*
X95209335Y-70996429D01*
X94616668Y-70996429D02*
X93600668Y-70996429D01*
X94108668Y-72520429D02*
X94108668Y-70996429D01*
X91992001Y-72375286D02*
X92076667Y-72447857D01*
X92330667Y-72520429D01*
X92500001Y-72520429D01*
X92754001Y-72447857D01*
X92923334Y-72302714D01*
X93008001Y-72157571D01*
X93092667Y-71867286D01*
X93092667Y-71649571D01*
X93008001Y-71359286D01*
X92923334Y-71214143D01*
X92754001Y-71069000D01*
X92500001Y-70996429D01*
X92330667Y-70996429D01*
X92076667Y-71069000D01*
X91992001Y-71141571D01*
X91230001Y-72520429D02*
X91230001Y-70996429D01*
X91230001Y-71722143D02*
X90214001Y-71722143D01*
X90214001Y-72520429D02*
X90214001Y-70996429D01*
X89790667Y-72665571D02*
X88436000Y-72665571D01*
X88012667Y-72520429D02*
X88012667Y-70996429D01*
X87589333Y-70996429D01*
X87335333Y-71069000D01*
X87166000Y-71214143D01*
X87081333Y-71359286D01*
X86996667Y-71649571D01*
X86996667Y-71867286D01*
X87081333Y-72157571D01*
X87166000Y-72302714D01*
X87335333Y-72447857D01*
X87589333Y-72520429D01*
X88012667Y-72520429D01*
X86234667Y-72520429D02*
X86234667Y-70996429D01*
X85049333Y-70996429D02*
X84710666Y-70996429D01*
X84541333Y-71069000D01*
X84372000Y-71214143D01*
X84287333Y-71504429D01*
X84287333Y-72012429D01*
X84372000Y-72302714D01*
X84541333Y-72447857D01*
X84710666Y-72520429D01*
X85049333Y-72520429D01*
X85218666Y-72447857D01*
X85388000Y-72302714D01*
X85472666Y-72012429D01*
X85472666Y-71504429D01*
X85388000Y-71214143D01*
X85218666Y-71069000D01*
X85049333Y-70996429D01*
X83525333Y-72520429D02*
X83525333Y-70996429D01*
X83101999Y-70996429D01*
X82847999Y-71069000D01*
X82678666Y-71214143D01*
X82593999Y-71359286D01*
X82509333Y-71649571D01*
X82509333Y-71867286D01*
X82593999Y-72157571D01*
X82678666Y-72302714D01*
X82847999Y-72447857D01*
X83101999Y-72520429D01*
X83525333Y-72520429D01*
X81747333Y-71722143D02*
X81154666Y-71722143D01*
X80900666Y-72520429D02*
X81747333Y-72520429D01*
X81747333Y-70996429D01*
X80900666Y-70996429D01*
X118069334Y-74828857D02*
X117815334Y-74901429D01*
X117392001Y-74901429D01*
X117222668Y-74828857D01*
X117138001Y-74756286D01*
X117053334Y-74611143D01*
X117053334Y-74466000D01*
X117138001Y-74320857D01*
X117222668Y-74248286D01*
X117392001Y-74175714D01*
X117730668Y-74103143D01*
X117900001Y-74030571D01*
X117984668Y-73958000D01*
X118069334Y-73812857D01*
X118069334Y-73667714D01*
X117984668Y-73522571D01*
X117900001Y-73450000D01*
X117730668Y-73377429D01*
X117307334Y-73377429D01*
X117053334Y-73450000D01*
X116460668Y-73377429D02*
X116037335Y-74901429D01*
X115698668Y-73812857D01*
X115360001Y-74901429D01*
X114936668Y-73377429D01*
X114259335Y-74901429D02*
X114259335Y-73377429D01*
X113666668Y-73377429D02*
X112650668Y-73377429D01*
X113158668Y-74901429D02*
X113158668Y-73377429D01*
X111042001Y-74756286D02*
X111126667Y-74828857D01*
X111380667Y-74901429D01*
X111550001Y-74901429D01*
X111804001Y-74828857D01*
X111973334Y-74683714D01*
X112058001Y-74538571D01*
X112142667Y-74248286D01*
X112142667Y-74030571D01*
X112058001Y-73740286D01*
X111973334Y-73595143D01*
X111804001Y-73450000D01*
X111550001Y-73377429D01*
X111380667Y-73377429D01*
X111126667Y-73450000D01*
X111042001Y-73522571D01*
X110280001Y-74901429D02*
X110280001Y-73377429D01*
X110280001Y-74103143D02*
X109264001Y-74103143D01*
X109264001Y-74901429D02*
X109264001Y-73377429D01*
X108840667Y-75046571D02*
X107486000Y-75046571D01*
X107062667Y-74901429D02*
X107062667Y-73377429D01*
X106639333Y-73377429D01*
X106385333Y-73450000D01*
X106216000Y-73595143D01*
X106131333Y-73740286D01*
X106046667Y-74030571D01*
X106046667Y-74248286D01*
X106131333Y-74538571D01*
X106216000Y-74683714D01*
X106385333Y-74828857D01*
X106639333Y-74901429D01*
X107062667Y-74901429D01*
X105284667Y-74901429D02*
X105284667Y-73377429D01*
X104099333Y-73377429D02*
X103760666Y-73377429D01*
X103591333Y-73450000D01*
X103422000Y-73595143D01*
X103337333Y-73885429D01*
X103337333Y-74393429D01*
X103422000Y-74683714D01*
X103591333Y-74828857D01*
X103760666Y-74901429D01*
X104099333Y-74901429D01*
X104268666Y-74828857D01*
X104438000Y-74683714D01*
X104522666Y-74393429D01*
X104522666Y-73885429D01*
X104438000Y-73595143D01*
X104268666Y-73450000D01*
X104099333Y-73377429D01*
X102575333Y-74901429D02*
X102575333Y-73377429D01*
X102151999Y-73377429D01*
X101897999Y-73450000D01*
X101728666Y-73595143D01*
X101643999Y-73740286D01*
X101559333Y-74030571D01*
X101559333Y-74248286D01*
X101643999Y-74538571D01*
X101728666Y-74683714D01*
X101897999Y-74828857D01*
X102151999Y-74901429D01*
X102575333Y-74901429D01*
X100797333Y-74103143D02*
X100204666Y-74103143D01*
X99950666Y-74901429D02*
X100797333Y-74901429D01*
X100797333Y-73377429D01*
X99950666Y-73377429D01*
X137119334Y-70066857D02*
X136865334Y-70139429D01*
X136442001Y-70139429D01*
X136272668Y-70066857D01*
X136188001Y-69994286D01*
X136103334Y-69849143D01*
X136103334Y-69704000D01*
X136188001Y-69558857D01*
X136272668Y-69486286D01*
X136442001Y-69413714D01*
X136780668Y-69341143D01*
X136950001Y-69268571D01*
X137034668Y-69196000D01*
X137119334Y-69050857D01*
X137119334Y-68905714D01*
X137034668Y-68760571D01*
X136950001Y-68688000D01*
X136780668Y-68615429D01*
X136357334Y-68615429D01*
X136103334Y-68688000D01*
X135510668Y-68615429D02*
X135087335Y-70139429D01*
X134748668Y-69050857D01*
X134410001Y-70139429D01*
X133986668Y-68615429D01*
X133309335Y-70139429D02*
X133309335Y-68615429D01*
X132716668Y-68615429D02*
X131700668Y-68615429D01*
X132208668Y-70139429D02*
X132208668Y-68615429D01*
X130092001Y-69994286D02*
X130176667Y-70066857D01*
X130430667Y-70139429D01*
X130600001Y-70139429D01*
X130854001Y-70066857D01*
X131023334Y-69921714D01*
X131108001Y-69776571D01*
X131192667Y-69486286D01*
X131192667Y-69268571D01*
X131108001Y-68978286D01*
X131023334Y-68833143D01*
X130854001Y-68688000D01*
X130600001Y-68615429D01*
X130430667Y-68615429D01*
X130176667Y-68688000D01*
X130092001Y-68760571D01*
X129330001Y-70139429D02*
X129330001Y-68615429D01*
X129330001Y-69341143D02*
X128314001Y-69341143D01*
X128314001Y-70139429D02*
X128314001Y-68615429D01*
X127890667Y-70284571D02*
X126536000Y-70284571D01*
X126112667Y-70139429D02*
X126112667Y-68615429D01*
X125689333Y-68615429D01*
X125435333Y-68688000D01*
X125266000Y-68833143D01*
X125181333Y-68978286D01*
X125096667Y-69268571D01*
X125096667Y-69486286D01*
X125181333Y-69776571D01*
X125266000Y-69921714D01*
X125435333Y-70066857D01*
X125689333Y-70139429D01*
X126112667Y-70139429D01*
X124334667Y-70139429D02*
X124334667Y-68615429D01*
X123149333Y-68615429D02*
X122810666Y-68615429D01*
X122641333Y-68688000D01*
X122472000Y-68833143D01*
X122387333Y-69123429D01*
X122387333Y-69631429D01*
X122472000Y-69921714D01*
X122641333Y-70066857D01*
X122810666Y-70139429D01*
X123149333Y-70139429D01*
X123318666Y-70066857D01*
X123488000Y-69921714D01*
X123572666Y-69631429D01*
X123572666Y-69123429D01*
X123488000Y-68833143D01*
X123318666Y-68688000D01*
X123149333Y-68615429D01*
X121625333Y-70139429D02*
X121625333Y-68615429D01*
X121201999Y-68615429D01*
X120947999Y-68688000D01*
X120778666Y-68833143D01*
X120693999Y-68978286D01*
X120609333Y-69268571D01*
X120609333Y-69486286D01*
X120693999Y-69776571D01*
X120778666Y-69921714D01*
X120947999Y-70066857D01*
X121201999Y-70139429D01*
X121625333Y-70139429D01*
X119847333Y-69341143D02*
X119254666Y-69341143D01*
X119000666Y-70139429D02*
X119847333Y-70139429D01*
X119847333Y-68615429D01*
X119000666Y-68615429D01*
X125182497Y-95808815D02*
X125118346Y-96065072D01*
X124906680Y-96431689D01*
X124759164Y-96542049D01*
X124653982Y-96579088D01*
X124485951Y-96579840D01*
X124360253Y-96507268D01*
X124276889Y-96361373D01*
X124256375Y-96251764D01*
X124278192Y-96068831D01*
X124384677Y-95739251D01*
X124406494Y-95556319D01*
X124385980Y-95446710D01*
X124302615Y-95300815D01*
X124176917Y-95228244D01*
X124008887Y-95228995D01*
X123903705Y-95266033D01*
X123756190Y-95376394D01*
X123544523Y-95743012D01*
X123480372Y-95999268D01*
X123121190Y-96476247D02*
X124229347Y-97604864D01*
X123117282Y-97353872D01*
X123890680Y-98191452D01*
X122359190Y-97796069D01*
X123340347Y-99144657D02*
X122020524Y-98382657D01*
X121724190Y-98895922D02*
X121216190Y-99775804D01*
X122790013Y-100097863D02*
X121470190Y-99335863D01*
X121605982Y-101858379D02*
X121711163Y-101821341D01*
X121901013Y-101637657D01*
X121985680Y-101491009D01*
X122049830Y-101234753D01*
X122008799Y-101015534D01*
X121925435Y-100869639D01*
X121716374Y-100651174D01*
X121527827Y-100542316D01*
X121234100Y-100470497D01*
X121066069Y-100471249D01*
X120855705Y-100545324D01*
X120665857Y-100729009D01*
X120581190Y-100875657D01*
X120517038Y-101131913D01*
X120537553Y-101241521D01*
X121350680Y-102590861D02*
X120030857Y-101828861D01*
X120659344Y-102191718D02*
X120151344Y-103071600D01*
X120842680Y-103470743D02*
X119522857Y-102708743D01*
X120756709Y-103909932D02*
X120079376Y-105083108D01*
X119742013Y-105377154D02*
X118422190Y-104615154D01*
X118210523Y-104981772D01*
X118146371Y-105238028D01*
X118187402Y-105457246D01*
X118270766Y-105603142D01*
X118479827Y-105821607D01*
X118668374Y-105930465D01*
X118962101Y-106002284D01*
X119130132Y-106001532D01*
X119340496Y-105927457D01*
X119530346Y-105743772D01*
X119742013Y-105377154D01*
X118853013Y-106916948D02*
X117533190Y-106154948D01*
X116940523Y-107181477D02*
X116771189Y-107474771D01*
X116749371Y-107657703D01*
X116790402Y-107876921D01*
X116999464Y-108095388D01*
X117439405Y-108349388D01*
X117733132Y-108421207D01*
X117943496Y-108347132D01*
X118091012Y-108236771D01*
X118260346Y-107943477D01*
X118282163Y-107760544D01*
X118241132Y-107541325D01*
X118032071Y-107322860D01*
X117592130Y-107068860D01*
X117298402Y-106997040D01*
X117088038Y-107071116D01*
X116940523Y-107181477D01*
X117498346Y-109263300D02*
X116178523Y-108501300D01*
X115966856Y-108867918D01*
X115902704Y-109124174D01*
X115943735Y-109343392D01*
X116027099Y-109489287D01*
X116236160Y-109707752D01*
X116424707Y-109816610D01*
X116718434Y-109888429D01*
X116886465Y-109887677D01*
X117096829Y-109813602D01*
X117286679Y-109629918D01*
X117498346Y-109263300D01*
X115918010Y-110403950D02*
X115621676Y-110917214D01*
X116186012Y-111536328D02*
X116609346Y-110803093D01*
X115289523Y-110041093D01*
X114866189Y-110774328D01*
X141680497Y-105333815D02*
X141616346Y-105590072D01*
X141404680Y-105956689D01*
X141257164Y-106067049D01*
X141151982Y-106104088D01*
X140983951Y-106104840D01*
X140858253Y-106032268D01*
X140774889Y-105886373D01*
X140754375Y-105776764D01*
X140776192Y-105593831D01*
X140882677Y-105264251D01*
X140904494Y-105081319D01*
X140883980Y-104971710D01*
X140800615Y-104825815D01*
X140674917Y-104753244D01*
X140506887Y-104753995D01*
X140401705Y-104791033D01*
X140254190Y-104901394D01*
X140042523Y-105268012D01*
X139978372Y-105524268D01*
X139619190Y-106001247D02*
X140727347Y-107129864D01*
X139615282Y-106878872D01*
X140388680Y-107716452D01*
X138857190Y-107321069D01*
X139838347Y-108669657D02*
X138518524Y-107907657D01*
X138222190Y-108420922D02*
X137714190Y-109300804D01*
X139288013Y-109622863D02*
X137968190Y-108860863D01*
X138103982Y-111383379D02*
X138209163Y-111346341D01*
X138399013Y-111162657D01*
X138483680Y-111016009D01*
X138547830Y-110759753D01*
X138506799Y-110540534D01*
X138423435Y-110394639D01*
X138214374Y-110176174D01*
X138025827Y-110067316D01*
X137732100Y-109995497D01*
X137564069Y-109996249D01*
X137353705Y-110070324D01*
X137163857Y-110254009D01*
X137079190Y-110400657D01*
X137015038Y-110656913D01*
X137035553Y-110766521D01*
X137848680Y-112115861D02*
X136528857Y-111353861D01*
X137157344Y-111716718D02*
X136649344Y-112596600D01*
X137340680Y-112995743D02*
X136020857Y-112233743D01*
X137254709Y-113434932D02*
X136577376Y-114608108D01*
X136240013Y-114902154D02*
X134920190Y-114140154D01*
X134708523Y-114506772D01*
X134644371Y-114763028D01*
X134685402Y-114982246D01*
X134768766Y-115128142D01*
X134977827Y-115346607D01*
X135166374Y-115455465D01*
X135460101Y-115527284D01*
X135628132Y-115526532D01*
X135838496Y-115452457D01*
X136028346Y-115268772D01*
X136240013Y-114902154D01*
X135351013Y-116441948D02*
X134031190Y-115679948D01*
X133438523Y-116706477D02*
X133269189Y-116999771D01*
X133247371Y-117182703D01*
X133288402Y-117401921D01*
X133497464Y-117620388D01*
X133937405Y-117874388D01*
X134231132Y-117946207D01*
X134441496Y-117872132D01*
X134589012Y-117761771D01*
X134758346Y-117468477D01*
X134780163Y-117285544D01*
X134739132Y-117066325D01*
X134530071Y-116847860D01*
X134090130Y-116593860D01*
X133796402Y-116522040D01*
X133586038Y-116596116D01*
X133438523Y-116706477D01*
X133996346Y-118788300D02*
X132676523Y-118026300D01*
X132464856Y-118392918D01*
X132400704Y-118649174D01*
X132441735Y-118868392D01*
X132525099Y-119014287D01*
X132734160Y-119232752D01*
X132922707Y-119341610D01*
X133216434Y-119413429D01*
X133384465Y-119412677D01*
X133594829Y-119338602D01*
X133784679Y-119154918D01*
X133996346Y-118788300D01*
X132416010Y-119928950D02*
X132119676Y-120442214D01*
X132684012Y-121061328D02*
X133107346Y-120328093D01*
X131787523Y-119566093D01*
X131364189Y-120299328D01*
D11*
X125261666Y-47682381D02*
X125595000Y-47206190D01*
X125833095Y-47682381D02*
X125833095Y-46682381D01*
X125452142Y-46682381D01*
X125356904Y-46730000D01*
X125309285Y-46777619D01*
X125261666Y-46872857D01*
X125261666Y-47015714D01*
X125309285Y-47110952D01*
X125356904Y-47158571D01*
X125452142Y-47206190D01*
X125833095Y-47206190D01*
X124309285Y-47682381D02*
X124880714Y-47682381D01*
X124595000Y-47682381D02*
X124595000Y-46682381D01*
X124690238Y-46825238D01*
X124785476Y-46920476D01*
X124880714Y-46968095D01*
X116897381Y-4278334D02*
X116421190Y-3945000D01*
X116897381Y-3706905D02*
X115897381Y-3706905D01*
X115897381Y-4087858D01*
X115945000Y-4183096D01*
X115992619Y-4230715D01*
X116087857Y-4278334D01*
X116230714Y-4278334D01*
X116325952Y-4230715D01*
X116373571Y-4183096D01*
X116421190Y-4087858D01*
X116421190Y-3706905D01*
X115992619Y-4659286D02*
X115945000Y-4706905D01*
X115897381Y-4802143D01*
X115897381Y-5040239D01*
X115945000Y-5135477D01*
X115992619Y-5183096D01*
X116087857Y-5230715D01*
X116183095Y-5230715D01*
X116325952Y-5183096D01*
X116897381Y-4611667D01*
X116897381Y-5230715D01*
X78797381Y-4278334D02*
X78321190Y-3945000D01*
X78797381Y-3706905D02*
X77797381Y-3706905D01*
X77797381Y-4087858D01*
X77845000Y-4183096D01*
X77892619Y-4230715D01*
X77987857Y-4278334D01*
X78130714Y-4278334D01*
X78225952Y-4230715D01*
X78273571Y-4183096D01*
X78321190Y-4087858D01*
X78321190Y-3706905D01*
X77797381Y-4611667D02*
X77797381Y-5230715D01*
X78178333Y-4897381D01*
X78178333Y-5040239D01*
X78225952Y-5135477D01*
X78273571Y-5183096D01*
X78368810Y-5230715D01*
X78606905Y-5230715D01*
X78702143Y-5183096D01*
X78749762Y-5135477D01*
X78797381Y-5040239D01*
X78797381Y-4754524D01*
X78749762Y-4659286D01*
X78702143Y-4611667D01*
X125021964Y-114261854D02*
X124776238Y-113735082D01*
X125307679Y-113766981D02*
X124441654Y-113266981D01*
X124251177Y-113596896D01*
X124244797Y-113703184D01*
X124262227Y-113768233D01*
X124320896Y-113857092D01*
X124444614Y-113928520D01*
X124550902Y-113934900D01*
X124615951Y-113917470D01*
X124704809Y-113858801D01*
X124895285Y-113528886D01*
X124016042Y-114670828D02*
X124593393Y-115004161D01*
X123805176Y-114274154D02*
X124542814Y-114425101D01*
X124233290Y-114961212D01*
X22437381Y-21423334D02*
X21961190Y-21090000D01*
X22437381Y-20851905D02*
X21437381Y-20851905D01*
X21437381Y-21232858D01*
X21485000Y-21328096D01*
X21532619Y-21375715D01*
X21627857Y-21423334D01*
X21770714Y-21423334D01*
X21865952Y-21375715D01*
X21913571Y-21328096D01*
X21961190Y-21232858D01*
X21961190Y-20851905D01*
X21437381Y-22328096D02*
X21437381Y-21851905D01*
X21913571Y-21804286D01*
X21865952Y-21851905D01*
X21818333Y-21947143D01*
X21818333Y-22185239D01*
X21865952Y-22280477D01*
X21913571Y-22328096D01*
X22008810Y-22375715D01*
X22246905Y-22375715D01*
X22342143Y-22328096D01*
X22389762Y-22280477D01*
X22437381Y-22185239D01*
X22437381Y-21947143D01*
X22389762Y-21851905D01*
X22342143Y-21804286D01*
X23072381Y-72858334D02*
X22596190Y-72525000D01*
X23072381Y-72286905D02*
X22072381Y-72286905D01*
X22072381Y-72667858D01*
X22120000Y-72763096D01*
X22167619Y-72810715D01*
X22262857Y-72858334D01*
X22405714Y-72858334D01*
X22500952Y-72810715D01*
X22548571Y-72763096D01*
X22596190Y-72667858D01*
X22596190Y-72286905D01*
X22072381Y-73715477D02*
X22072381Y-73525000D01*
X22120000Y-73429762D01*
X22167619Y-73382143D01*
X22310476Y-73286905D01*
X22500952Y-73239286D01*
X22881905Y-73239286D01*
X22977143Y-73286905D01*
X23024762Y-73334524D01*
X23072381Y-73429762D01*
X23072381Y-73620239D01*
X23024762Y-73715477D01*
X22977143Y-73763096D01*
X22881905Y-73810715D01*
X22643810Y-73810715D01*
X22548571Y-73763096D01*
X22500952Y-73715477D01*
X22453333Y-73620239D01*
X22453333Y-73429762D01*
X22500952Y-73334524D01*
X22548571Y-73286905D01*
X22643810Y-73239286D01*
X64061964Y-85051854D02*
X63816238Y-84525082D01*
X64347679Y-84556981D02*
X63481654Y-84056981D01*
X63291177Y-84386896D01*
X63284797Y-84493184D01*
X63302227Y-84558233D01*
X63360896Y-84647092D01*
X63484614Y-84718520D01*
X63590902Y-84724900D01*
X63655951Y-84707470D01*
X63744809Y-84648801D01*
X63935285Y-84318886D01*
X63029273Y-84840528D02*
X62695939Y-85417879D01*
X63776250Y-85546725D01*
M02*
