M48
METRIC,TZ
T1C3.988
%
G90
G05
T1
X8998Y-16141
X8998Y-35191
X8998Y-54241
X8998Y-73291
X32810Y-16140
X32810Y-35191
X32810Y-54241
X32810Y-73291
X51860Y-11379
X51860Y-30429
X51860Y-49479
X51860Y-68529
X70910Y-8998
X70910Y-28038
X70910Y-47088
X70910Y-66138
X89960Y-11379
X89960Y-30429
X89960Y-49479
X89960Y-68529
X109010Y-13760
X109010Y-32810
X109010Y-70910
X109101Y-51860
X117259Y-101695
X128060Y-13760
X128060Y-37573
X128060Y-66148
X133757Y-111220
T0
M30
