M48
INCH,TZ
T1C0.157
%
G90
G05
T1
X3543Y-6355
X3543Y-13855
X3543Y-21355
X3543Y-28855
X12917Y-6354
X12917Y-13855
X12917Y-21355
X12917Y-28855
X20417Y-4480
X20417Y-11980
X20417Y-19480
X20417Y-26980
X27917Y-3543
X27917Y-11039
X27917Y-18539
X27917Y-26039
X35417Y-4480
X35417Y-11980
X35417Y-19480
X35417Y-26980
X42917Y-5417
X42917Y-12917
X42917Y-27917
X42953Y-20417
X46165Y-40037
X50417Y-5417
X50417Y-14793
X50417Y-26043
X52660Y-43787
T0
M30
