M48
METRIC,TZ
T1C0.400
T2C0.500
T3C0.762
T4C0.991
T5C1.000
T6C1.092
T7C1.092
T8C1.499
T9C1.702
%
G90
G05
T1
X4445Y-5715
X131445Y-126365
X132080Y-4445
X146685Y-101600
T2
X23495Y-66675
X24765Y-3810
X24765Y-7620
X27940Y-3175
X27940Y-8255
X38735Y-66040
X59690Y-77049
X59690Y-82550
X83185Y-94615
X85090Y-92075
X86995Y-96520
X114935Y-88900
X114935Y-90805
X118110Y-76200
X118110Y-80010
X119380Y-30480
X119380Y-74930
X119380Y-78740
X120015Y-88900
X120015Y-90805
X120650Y-74295
X120650Y-77470
X121920Y-29845
X125730Y-58420
T3
X18400Y-4895
X19200Y-3696
X20000Y-4895
X20800Y-3696
X21600Y-4895
X68115Y-86949
X69385Y-84750
X70655Y-82550
X71925Y-80350
X73195Y-78151
X129540Y-46355
X129540Y-48895
X129540Y-53975
X129540Y-56515
X134620Y-51435
T4
X5188Y-21221
X5188Y-23761
X5188Y-40271
X5188Y-42811
X5188Y-59321
X5188Y-61861
X5188Y-78371
X5188Y-80911
X12808Y-21221
X12808Y-23761
X12808Y-40271
X12808Y-42811
X12808Y-59321
X12808Y-61861
X12808Y-78371
X12808Y-80911
X29000Y-21220
X29000Y-23760
X29000Y-40271
X29000Y-42811
X29000Y-59321
X29000Y-61861
X29000Y-78371
X29000Y-80911
X36620Y-21220
X36620Y-23760
X36620Y-40271
X36620Y-42811
X36620Y-59321
X36620Y-61861
X36620Y-78371
X36620Y-80911
X48050Y-16459
X48050Y-18999
X48050Y-35509
X48050Y-38049
X48050Y-54559
X48050Y-57099
X48050Y-73609
X48050Y-76149
X55670Y-16459
X55670Y-18999
X55670Y-35509
X55670Y-38049
X55670Y-54559
X55670Y-57099
X55670Y-73609
X55670Y-76149
X67100Y-14078
X67100Y-16618
X67100Y-33118
X67100Y-35658
X67100Y-52168
X67100Y-54708
X67100Y-71218
X67100Y-73758
X74720Y-14078
X74720Y-16618
X74720Y-33118
X74720Y-35658
X74720Y-52168
X74720Y-54708
X74720Y-71218
X74720Y-73758
X86150Y-16459
X86150Y-18999
X86150Y-35509
X86150Y-38049
X86150Y-54559
X86150Y-57099
X86150Y-73609
X86150Y-76149
X93770Y-16459
X93770Y-18999
X93770Y-35509
X93770Y-38049
X93770Y-54559
X93770Y-57099
X93770Y-73609
X93770Y-76149
X105200Y-18840
X105200Y-21380
X105200Y-37890
X105200Y-40430
X105200Y-75990
X105200Y-78530
X105291Y-56940
X105291Y-59480
X112820Y-18840
X112820Y-21380
X112820Y-37890
X112820Y-40430
X112820Y-75990
X112820Y-78530
X112911Y-56940
X112911Y-59480
X119753Y-107535
X121953Y-108805
X123563Y-100935
X124250Y-18840
X124250Y-21380
X124250Y-29953
X124250Y-32493
X124250Y-71228
X124250Y-73768
X125763Y-102205
X131870Y-18840
X131870Y-21380
X131870Y-29953
X131870Y-32493
X131870Y-71228
X131870Y-73768
X136251Y-117060
X138451Y-118330
X140061Y-110460
X142261Y-111730
T5
X121285Y-123825
X124285Y-118629
X124749Y-125825
X127749Y-120629
T6
X83152Y-85476
T7
X75532Y-98674
X77731Y-99944
X79931Y-101214
X82131Y-102484
X84330Y-103754
X85351Y-86746
X86530Y-105024
X87551Y-88016
X88730Y-106294
X89751Y-89286
X90930Y-107564
X91950Y-90556
X93129Y-108834
X94150Y-91826
X95329Y-110104
X96350Y-93096
X97529Y-111374
X98550Y-94366
X99728Y-112644
X100749Y-95636
X102949Y-96906
X105149Y-98176
X107348Y-99446
T8
X5188Y-13601
X5188Y-32651
X5188Y-51701
X5188Y-70751
X6458Y-11061
X6458Y-30111
X6458Y-49161
X6458Y-68211
X11538Y-11061
X11538Y-30111
X11538Y-49161
X11538Y-68211
X12808Y-13601
X12808Y-32651
X12808Y-51701
X12808Y-70751
X29000Y-13600
X29000Y-32651
X29000Y-51701
X29000Y-70751
X30270Y-11060
X30270Y-30111
X30270Y-49161
X30270Y-68211
X35350Y-11060
X35350Y-30111
X35350Y-49161
X35350Y-68211
X36620Y-13600
X36620Y-32651
X36620Y-51701
X36620Y-70751
X48050Y-8839
X48050Y-27889
X48050Y-46939
X48050Y-65989
X49320Y-6299
X49320Y-25349
X49320Y-44399
X49320Y-63449
X54400Y-6299
X54400Y-25349
X54400Y-44399
X54400Y-63449
X55670Y-8839
X55670Y-27889
X55670Y-46939
X55670Y-65989
X67100Y-6458
X67100Y-25498
X67100Y-44548
X67100Y-63598
X68370Y-3918
X68370Y-22958
X68370Y-42008
X68370Y-61058
X73450Y-3918
X73450Y-22958
X73450Y-42008
X73450Y-61058
X74720Y-6458
X74720Y-25498
X74720Y-44548
X74720Y-63598
X86150Y-8839
X86150Y-27889
X86150Y-46939
X86150Y-65989
X87420Y-6299
X87420Y-25349
X87420Y-44399
X87420Y-63449
X92500Y-6299
X92500Y-25349
X92500Y-44399
X92500Y-63449
X93770Y-8839
X93770Y-27889
X93770Y-46939
X93770Y-65989
X105200Y-11220
X105200Y-30270
X105200Y-68370
X105291Y-49320
X106470Y-8680
X106470Y-27730
X106470Y-65830
X106561Y-46780
X111550Y-8680
X111550Y-27730
X111550Y-65830
X111590Y-101355
X111641Y-46780
X112820Y-11220
X112820Y-30270
X112820Y-68370
X112911Y-49320
X113154Y-103725
X114130Y-96955
X116964Y-97125
X124250Y-11220
X124250Y-40113
X124250Y-63608
X125520Y-8680
X125520Y-42653
X125520Y-61068
X128088Y-110880
X129652Y-113250
X130600Y-8680
X130600Y-42653
X130600Y-61068
X130628Y-106480
X131870Y-11220
X131870Y-40113
X131870Y-63608
X133462Y-106650
T9
X3918Y-16141
X3918Y-35191
X3918Y-54241
X3918Y-73291
X14078Y-16141
X14078Y-35191
X14078Y-54241
X14078Y-73291
X27730Y-16140
X27730Y-35191
X27730Y-54241
X27730Y-73291
X37890Y-16140
X37890Y-35191
X37890Y-54241
X37890Y-73291
X46780Y-11379
X46780Y-30429
X46780Y-49479
X46780Y-68529
X56940Y-11379
X56940Y-30429
X56940Y-49479
X56940Y-68529
X65830Y-8998
X65830Y-28038
X65830Y-47088
X65830Y-66138
X75990Y-8998
X75990Y-28038
X75990Y-47088
X75990Y-66138
X84880Y-11379
X84880Y-30429
X84880Y-49479
X84880Y-68529
X95040Y-11379
X95040Y-30429
X95040Y-49479
X95040Y-68529
X103930Y-13760
X103930Y-32810
X103930Y-70910
X104021Y-51860
X114090Y-13760
X114090Y-32810
X114090Y-70910
X114181Y-51860
X114719Y-106094
X119799Y-97296
X122980Y-13760
X122980Y-37573
X122980Y-66148
X131217Y-115619
X133140Y-13760
X133140Y-37573
X133140Y-66148
X136297Y-106821
T3
X16353Y726G85X16353Y-417
G05
X23647Y726G85X23647Y-417
G05
T0
M30
