G04 #@! TF.FileFunction,Legend,Bot*
%FSLAX46Y46*%
G04 Gerber Fmt 4.6, Leading zero omitted, Abs format (unit mm)*
G04 Created by KiCad (PCBNEW 4.0.2-4+6225~38~ubuntu14.04.1-stable) date za 02 jul 2016 21:58:40 CEST*
%MOMM*%
G01*
G04 APERTURE LIST*
%ADD10C,0.100000*%
%ADD11C,0.381000*%
%ADD12C,0.150000*%
%ADD13C,0.254000*%
%ADD14C,0.203200*%
G04 APERTURE END LIST*
D10*
D11*
X108584739Y-104019261D02*
X109473739Y-102479468D01*
X114045739Y-94560532D02*
X114934739Y-93020739D01*
X114934739Y-93020739D02*
X116474532Y-93909739D01*
X124393468Y-98481739D02*
X125933261Y-99370739D01*
X125933261Y-99370739D02*
X125044261Y-100910532D01*
X120472261Y-108829468D02*
X119583261Y-110369261D01*
X119583261Y-110369261D02*
X118043468Y-109480261D01*
X110124532Y-104908261D02*
X108584739Y-104019261D01*
D12*
X76971773Y-93639705D02*
X79171477Y-94909705D01*
X79171477Y-94909705D02*
X81711477Y-90510295D01*
X81711477Y-90510295D02*
X79511773Y-89240295D01*
X79511773Y-89240295D02*
X76971773Y-93639705D01*
X75996477Y-100408966D02*
X77266477Y-98209261D01*
X77266477Y-98209261D02*
X79466182Y-99479261D01*
X79466182Y-99479261D02*
X78196182Y-101678966D01*
D11*
X73796773Y-99138966D02*
X82686773Y-83741034D01*
X82686773Y-83741034D02*
X109083227Y-98981034D01*
X109083227Y-98981034D02*
X100193227Y-114378966D01*
X100193227Y-114378966D02*
X73796773Y-99138966D01*
X2648000Y-9791000D02*
X4426000Y-9791000D01*
X13570000Y-9791000D02*
X15348000Y-9791000D01*
X15348000Y-9791000D02*
X15348000Y-11569000D01*
X15348000Y-20713000D02*
X15348000Y-22491000D01*
X15348000Y-22491000D02*
X13570000Y-22491000D01*
X4426000Y-22491000D02*
X2648000Y-22491000D01*
X2648000Y-22491000D02*
X2648000Y-20713000D01*
X2648000Y-11569000D02*
X2648000Y-9791000D01*
X26460000Y-9790000D02*
X28238000Y-9790000D01*
X37382000Y-9790000D02*
X39160000Y-9790000D01*
X39160000Y-9790000D02*
X39160000Y-11568000D01*
X39160000Y-20712000D02*
X39160000Y-22490000D01*
X39160000Y-22490000D02*
X37382000Y-22490000D01*
X28238000Y-22490000D02*
X26460000Y-22490000D01*
X26460000Y-22490000D02*
X26460000Y-20712000D01*
X26460000Y-11568000D02*
X26460000Y-9790000D01*
X45510000Y-5029000D02*
X47288000Y-5029000D01*
X56432000Y-5029000D02*
X58210000Y-5029000D01*
X58210000Y-5029000D02*
X58210000Y-6807000D01*
X58210000Y-15951000D02*
X58210000Y-17729000D01*
X58210000Y-17729000D02*
X56432000Y-17729000D01*
X47288000Y-17729000D02*
X45510000Y-17729000D01*
X45510000Y-17729000D02*
X45510000Y-15951000D01*
X45510000Y-6807000D02*
X45510000Y-5029000D01*
X64560000Y-2648000D02*
X66338000Y-2648000D01*
X75482000Y-2648000D02*
X77260000Y-2648000D01*
X77260000Y-2648000D02*
X77260000Y-4426000D01*
X77260000Y-13570000D02*
X77260000Y-15348000D01*
X77260000Y-15348000D02*
X75482000Y-15348000D01*
X66338000Y-15348000D02*
X64560000Y-15348000D01*
X64560000Y-15348000D02*
X64560000Y-13570000D01*
X64560000Y-4426000D02*
X64560000Y-2648000D01*
X83610000Y-5029000D02*
X85388000Y-5029000D01*
X94532000Y-5029000D02*
X96310000Y-5029000D01*
X96310000Y-5029000D02*
X96310000Y-6807000D01*
X96310000Y-15951000D02*
X96310000Y-17729000D01*
X96310000Y-17729000D02*
X94532000Y-17729000D01*
X85388000Y-17729000D02*
X83610000Y-17729000D01*
X83610000Y-17729000D02*
X83610000Y-15951000D01*
X83610000Y-6807000D02*
X83610000Y-5029000D01*
X102660000Y-7410000D02*
X104438000Y-7410000D01*
X113582000Y-7410000D02*
X115360000Y-7410000D01*
X115360000Y-7410000D02*
X115360000Y-9188000D01*
X115360000Y-18332000D02*
X115360000Y-20110000D01*
X115360000Y-20110000D02*
X113582000Y-20110000D01*
X104438000Y-20110000D02*
X102660000Y-20110000D01*
X102660000Y-20110000D02*
X102660000Y-18332000D01*
X102660000Y-9188000D02*
X102660000Y-7410000D01*
X121710000Y-7410000D02*
X123488000Y-7410000D01*
X132632000Y-7410000D02*
X134410000Y-7410000D01*
X134410000Y-7410000D02*
X134410000Y-9188000D01*
X134410000Y-18332000D02*
X134410000Y-20110000D01*
X134410000Y-20110000D02*
X132632000Y-20110000D01*
X123488000Y-20110000D02*
X121710000Y-20110000D01*
X121710000Y-20110000D02*
X121710000Y-18332000D01*
X121710000Y-9188000D02*
X121710000Y-7410000D01*
X2648000Y-28841000D02*
X4426000Y-28841000D01*
X13570000Y-28841000D02*
X15348000Y-28841000D01*
X15348000Y-28841000D02*
X15348000Y-30619000D01*
X15348000Y-39763000D02*
X15348000Y-41541000D01*
X15348000Y-41541000D02*
X13570000Y-41541000D01*
X4426000Y-41541000D02*
X2648000Y-41541000D01*
X2648000Y-41541000D02*
X2648000Y-39763000D01*
X2648000Y-30619000D02*
X2648000Y-28841000D01*
X26460000Y-28841000D02*
X28238000Y-28841000D01*
X37382000Y-28841000D02*
X39160000Y-28841000D01*
X39160000Y-28841000D02*
X39160000Y-30619000D01*
X39160000Y-39763000D02*
X39160000Y-41541000D01*
X39160000Y-41541000D02*
X37382000Y-41541000D01*
X28238000Y-41541000D02*
X26460000Y-41541000D01*
X26460000Y-41541000D02*
X26460000Y-39763000D01*
X26460000Y-30619000D02*
X26460000Y-28841000D01*
X45510000Y-24079000D02*
X47288000Y-24079000D01*
X56432000Y-24079000D02*
X58210000Y-24079000D01*
X58210000Y-24079000D02*
X58210000Y-25857000D01*
X58210000Y-35001000D02*
X58210000Y-36779000D01*
X58210000Y-36779000D02*
X56432000Y-36779000D01*
X47288000Y-36779000D02*
X45510000Y-36779000D01*
X45510000Y-36779000D02*
X45510000Y-35001000D01*
X45510000Y-25857000D02*
X45510000Y-24079000D01*
X64560000Y-21688000D02*
X66338000Y-21688000D01*
X75482000Y-21688000D02*
X77260000Y-21688000D01*
X77260000Y-21688000D02*
X77260000Y-23466000D01*
X77260000Y-32610000D02*
X77260000Y-34388000D01*
X77260000Y-34388000D02*
X75482000Y-34388000D01*
X66338000Y-34388000D02*
X64560000Y-34388000D01*
X64560000Y-34388000D02*
X64560000Y-32610000D01*
X64560000Y-23466000D02*
X64560000Y-21688000D01*
X83610000Y-24079000D02*
X85388000Y-24079000D01*
X94532000Y-24079000D02*
X96310000Y-24079000D01*
X96310000Y-24079000D02*
X96310000Y-25857000D01*
X96310000Y-35001000D02*
X96310000Y-36779000D01*
X96310000Y-36779000D02*
X94532000Y-36779000D01*
X85388000Y-36779000D02*
X83610000Y-36779000D01*
X83610000Y-36779000D02*
X83610000Y-35001000D01*
X83610000Y-25857000D02*
X83610000Y-24079000D01*
X102660000Y-26460000D02*
X104438000Y-26460000D01*
X113582000Y-26460000D02*
X115360000Y-26460000D01*
X115360000Y-26460000D02*
X115360000Y-28238000D01*
X115360000Y-37382000D02*
X115360000Y-39160000D01*
X115360000Y-39160000D02*
X113582000Y-39160000D01*
X104438000Y-39160000D02*
X102660000Y-39160000D01*
X102660000Y-39160000D02*
X102660000Y-37382000D01*
X102660000Y-28238000D02*
X102660000Y-26460000D01*
X2648000Y-47891000D02*
X4426000Y-47891000D01*
X13570000Y-47891000D02*
X15348000Y-47891000D01*
X15348000Y-47891000D02*
X15348000Y-49669000D01*
X15348000Y-58813000D02*
X15348000Y-60591000D01*
X15348000Y-60591000D02*
X13570000Y-60591000D01*
X4426000Y-60591000D02*
X2648000Y-60591000D01*
X2648000Y-60591000D02*
X2648000Y-58813000D01*
X2648000Y-49669000D02*
X2648000Y-47891000D01*
X26460000Y-47891000D02*
X28238000Y-47891000D01*
X37382000Y-47891000D02*
X39160000Y-47891000D01*
X39160000Y-47891000D02*
X39160000Y-49669000D01*
X39160000Y-58813000D02*
X39160000Y-60591000D01*
X39160000Y-60591000D02*
X37382000Y-60591000D01*
X28238000Y-60591000D02*
X26460000Y-60591000D01*
X26460000Y-60591000D02*
X26460000Y-58813000D01*
X26460000Y-49669000D02*
X26460000Y-47891000D01*
X45510000Y-43129000D02*
X47288000Y-43129000D01*
X56432000Y-43129000D02*
X58210000Y-43129000D01*
X58210000Y-43129000D02*
X58210000Y-44907000D01*
X58210000Y-54051000D02*
X58210000Y-55829000D01*
X58210000Y-55829000D02*
X56432000Y-55829000D01*
X47288000Y-55829000D02*
X45510000Y-55829000D01*
X45510000Y-55829000D02*
X45510000Y-54051000D01*
X45510000Y-44907000D02*
X45510000Y-43129000D01*
X64560000Y-40738000D02*
X66338000Y-40738000D01*
X75482000Y-40738000D02*
X77260000Y-40738000D01*
X77260000Y-40738000D02*
X77260000Y-42516000D01*
X77260000Y-51660000D02*
X77260000Y-53438000D01*
X77260000Y-53438000D02*
X75482000Y-53438000D01*
X66338000Y-53438000D02*
X64560000Y-53438000D01*
X64560000Y-53438000D02*
X64560000Y-51660000D01*
X64560000Y-42516000D02*
X64560000Y-40738000D01*
X83610000Y-43129000D02*
X85388000Y-43129000D01*
X94532000Y-43129000D02*
X96310000Y-43129000D01*
X96310000Y-43129000D02*
X96310000Y-44907000D01*
X96310000Y-54051000D02*
X96310000Y-55829000D01*
X96310000Y-55829000D02*
X94532000Y-55829000D01*
X85388000Y-55829000D02*
X83610000Y-55829000D01*
X83610000Y-55829000D02*
X83610000Y-54051000D01*
X83610000Y-44907000D02*
X83610000Y-43129000D01*
X102751000Y-45510000D02*
X104529000Y-45510000D01*
X113673000Y-45510000D02*
X115451000Y-45510000D01*
X115451000Y-45510000D02*
X115451000Y-47288000D01*
X115451000Y-56432000D02*
X115451000Y-58210000D01*
X115451000Y-58210000D02*
X113673000Y-58210000D01*
X104529000Y-58210000D02*
X102751000Y-58210000D01*
X102751000Y-58210000D02*
X102751000Y-56432000D01*
X102751000Y-47288000D02*
X102751000Y-45510000D01*
X134410000Y-43923000D02*
X132632000Y-43923000D01*
X123488000Y-43923000D02*
X121710000Y-43923000D01*
X121710000Y-43923000D02*
X121710000Y-42145000D01*
X121710000Y-33001000D02*
X121710000Y-31223000D01*
X121710000Y-31223000D02*
X123488000Y-31223000D01*
X132632000Y-31223000D02*
X134410000Y-31223000D01*
X134410000Y-31223000D02*
X134410000Y-33001000D01*
X134410000Y-42145000D02*
X134410000Y-43923000D01*
X2648000Y-66941000D02*
X4426000Y-66941000D01*
X13570000Y-66941000D02*
X15348000Y-66941000D01*
X15348000Y-66941000D02*
X15348000Y-68719000D01*
X15348000Y-77863000D02*
X15348000Y-79641000D01*
X15348000Y-79641000D02*
X13570000Y-79641000D01*
X4426000Y-79641000D02*
X2648000Y-79641000D01*
X2648000Y-79641000D02*
X2648000Y-77863000D01*
X2648000Y-68719000D02*
X2648000Y-66941000D01*
X26460000Y-66941000D02*
X28238000Y-66941000D01*
X37382000Y-66941000D02*
X39160000Y-66941000D01*
X39160000Y-66941000D02*
X39160000Y-68719000D01*
X39160000Y-77863000D02*
X39160000Y-79641000D01*
X39160000Y-79641000D02*
X37382000Y-79641000D01*
X28238000Y-79641000D02*
X26460000Y-79641000D01*
X26460000Y-79641000D02*
X26460000Y-77863000D01*
X26460000Y-68719000D02*
X26460000Y-66941000D01*
X45510000Y-62179000D02*
X47288000Y-62179000D01*
X56432000Y-62179000D02*
X58210000Y-62179000D01*
X58210000Y-62179000D02*
X58210000Y-63957000D01*
X58210000Y-73101000D02*
X58210000Y-74879000D01*
X58210000Y-74879000D02*
X56432000Y-74879000D01*
X47288000Y-74879000D02*
X45510000Y-74879000D01*
X45510000Y-74879000D02*
X45510000Y-73101000D01*
X45510000Y-63957000D02*
X45510000Y-62179000D01*
X64560000Y-59788000D02*
X66338000Y-59788000D01*
X75482000Y-59788000D02*
X77260000Y-59788000D01*
X77260000Y-59788000D02*
X77260000Y-61566000D01*
X77260000Y-70710000D02*
X77260000Y-72488000D01*
X77260000Y-72488000D02*
X75482000Y-72488000D01*
X66338000Y-72488000D02*
X64560000Y-72488000D01*
X64560000Y-72488000D02*
X64560000Y-70710000D01*
X64560000Y-61566000D02*
X64560000Y-59788000D01*
X83610000Y-62179000D02*
X85388000Y-62179000D01*
X94532000Y-62179000D02*
X96310000Y-62179000D01*
X96310000Y-62179000D02*
X96310000Y-63957000D01*
X96310000Y-73101000D02*
X96310000Y-74879000D01*
X96310000Y-74879000D02*
X94532000Y-74879000D01*
X85388000Y-74879000D02*
X83610000Y-74879000D01*
X83610000Y-74879000D02*
X83610000Y-73101000D01*
X83610000Y-63957000D02*
X83610000Y-62179000D01*
X102660000Y-64560000D02*
X104438000Y-64560000D01*
X113582000Y-64560000D02*
X115360000Y-64560000D01*
X115360000Y-64560000D02*
X115360000Y-66338000D01*
X115360000Y-75482000D02*
X115360000Y-77260000D01*
X115360000Y-77260000D02*
X113582000Y-77260000D01*
X104438000Y-77260000D02*
X102660000Y-77260000D01*
X102660000Y-77260000D02*
X102660000Y-75482000D01*
X102660000Y-66338000D02*
X102660000Y-64560000D01*
X121710000Y-59798000D02*
X123488000Y-59798000D01*
X132632000Y-59798000D02*
X134410000Y-59798000D01*
X134410000Y-59798000D02*
X134410000Y-61576000D01*
X134410000Y-70720000D02*
X134410000Y-72498000D01*
X134410000Y-72498000D02*
X132632000Y-72498000D01*
X123488000Y-72498000D02*
X121710000Y-72498000D01*
X121710000Y-72498000D02*
X121710000Y-70720000D01*
X121710000Y-61576000D02*
X121710000Y-59798000D01*
X125082739Y-113544261D02*
X125971739Y-112004468D01*
X130543739Y-104085532D02*
X131432739Y-102545739D01*
X131432739Y-102545739D02*
X132972532Y-103434739D01*
X140891468Y-108006739D02*
X142431261Y-108895739D01*
X142431261Y-108895739D02*
X141542261Y-110435532D01*
X136970261Y-118354468D02*
X136081261Y-119894261D01*
X136081261Y-119894261D02*
X134541468Y-119005261D01*
X126622532Y-114433261D02*
X125082739Y-113544261D01*
D13*
D14*
X92246077Y-101190409D02*
X92881077Y-100090557D01*
X92378287Y-99800271D01*
X92222352Y-99780074D01*
X92129265Y-99796162D01*
X92005940Y-99864624D01*
X91915226Y-100021746D01*
X91917598Y-100162780D01*
X91950209Y-100251439D01*
X92045668Y-100376384D01*
X92548458Y-100666670D01*
X90926254Y-100428409D02*
X91561254Y-99328557D01*
X90667742Y-99860166D01*
X90681372Y-98820557D01*
X90046372Y-99920409D01*
X88726550Y-99158409D02*
X89480734Y-99593838D01*
X89103642Y-99376124D02*
X89738642Y-98276272D01*
X89773626Y-98505964D01*
X89838846Y-98683284D01*
X89934306Y-98808229D01*
D13*
M02*
