G04 #@! TF.FileFunction,Soldermask,Bot*
%FSLAX46Y46*%
G04 Gerber Fmt 4.6, Leading zero omitted, Abs format (unit mm)*
G04 Created by KiCad (PCBNEW 4.0.2-4+6225~38~ubuntu14.04.1-stable) date ma 18 apr 2016 22:17:21 CEST*
%MOMM*%
G01*
G04 APERTURE LIST*
%ADD10C,0.100000*%
%ADD11R,1.997660X2.200860*%
%ADD12R,2.200860X1.997660*%
%ADD13R,2.432000X2.127200*%
%ADD14O,2.432000X2.127200*%
%ADD15C,2.152600*%
%ADD16C,2.686000*%
%ADD17C,2.051000*%
%ADD18R,2.051000X2.051000*%
%ADD19R,1.238200X1.238200*%
%ADD20R,2.400000X2.100000*%
%ADD21R,2.100000X2.400000*%
%ADD22O,1.543000X2.051000*%
%ADD23O,2.101800X3.194000*%
%ADD24C,1.924000*%
G04 APERTURE END LIST*
D10*
D11*
X123040140Y-52705000D03*
X125879860Y-52705000D03*
D12*
X118745000Y-8740140D03*
X118745000Y-11579860D03*
X80645000Y-8740140D03*
X80645000Y-11579860D03*
D10*
G36*
X125473655Y-109959862D02*
X123567655Y-108859432D01*
X124566485Y-107129408D01*
X126472485Y-108229838D01*
X125473655Y-109959862D01*
X125473655Y-109959862D01*
G37*
G36*
X126893515Y-107500592D02*
X124987515Y-106400162D01*
X125986345Y-104670138D01*
X127892345Y-105770568D01*
X126893515Y-107500592D01*
X126893515Y-107500592D01*
G37*
D12*
X22225000Y-19535140D03*
X22225000Y-22374860D03*
X20320000Y-68094860D03*
X20320000Y-65255140D03*
D10*
G36*
X59311345Y-79905138D02*
X61217345Y-81005568D01*
X60218515Y-82735592D01*
X58312515Y-81635162D01*
X59311345Y-79905138D01*
X59311345Y-79905138D01*
G37*
G36*
X57891485Y-82364408D02*
X59797485Y-83464838D01*
X58798655Y-85194862D01*
X56892655Y-84094432D01*
X57891485Y-82364408D01*
X57891485Y-82364408D01*
G37*
D13*
X133350000Y-51435000D03*
D14*
X133350000Y-53975000D03*
X133350000Y-56515000D03*
D15*
X85351330Y-86745886D03*
X87551034Y-88015886D03*
X89750739Y-89285886D03*
X91950443Y-90555886D03*
X94150148Y-91825886D03*
X96349852Y-93095886D03*
X98549557Y-94365886D03*
X100749261Y-95635886D03*
X102948966Y-96905886D03*
X105148670Y-98175886D03*
X107348375Y-99445886D03*
X99728375Y-112644114D03*
X97528670Y-111374114D03*
X95328966Y-110104114D03*
X93129261Y-108834114D03*
X90929557Y-107564114D03*
X88729852Y-106294114D03*
X86530148Y-105024114D03*
X84330443Y-103754114D03*
X82130739Y-102484114D03*
X79931034Y-101214114D03*
D10*
G36*
X76261077Y-100338067D02*
X77337377Y-98473861D01*
X79201583Y-99550161D01*
X78125283Y-101414367D01*
X76261077Y-100338067D01*
X76261077Y-100338067D01*
G37*
D15*
X75531625Y-98674114D03*
X83151625Y-85475886D03*
D16*
X11538000Y-11061000D03*
X5188000Y-13601000D03*
X12808000Y-13601000D03*
X6458000Y-11061000D03*
D17*
X5188000Y-21221000D03*
D18*
X12808000Y-21221000D03*
D17*
X5188000Y-23761000D03*
D18*
X12808000Y-23761000D03*
D19*
X7334300Y-23761000D03*
X10661700Y-23761000D03*
D16*
X35350000Y-11060000D03*
X29000000Y-13600000D03*
X36620000Y-13600000D03*
X30270000Y-11060000D03*
D17*
X29000000Y-21220000D03*
D18*
X36620000Y-21220000D03*
D17*
X29000000Y-23760000D03*
D18*
X36620000Y-23760000D03*
D19*
X31146300Y-23760000D03*
X34473700Y-23760000D03*
D16*
X54400000Y-6299000D03*
X48050000Y-8839000D03*
X55670000Y-8839000D03*
X49320000Y-6299000D03*
D17*
X48050000Y-16459000D03*
D18*
X55670000Y-16459000D03*
D17*
X48050000Y-18999000D03*
D18*
X55670000Y-18999000D03*
D19*
X50196300Y-18999000D03*
X53523700Y-18999000D03*
D16*
X73450000Y-3918000D03*
X67100000Y-6458000D03*
X74720000Y-6458000D03*
X68370000Y-3918000D03*
D17*
X67100000Y-14078000D03*
D18*
X74720000Y-14078000D03*
D17*
X67100000Y-16618000D03*
D18*
X74720000Y-16618000D03*
D19*
X69246300Y-16618000D03*
X72573700Y-16618000D03*
D16*
X92500000Y-6299000D03*
X86150000Y-8839000D03*
X93770000Y-8839000D03*
X87420000Y-6299000D03*
D17*
X86150000Y-16459000D03*
D18*
X93770000Y-16459000D03*
D17*
X86150000Y-18999000D03*
D18*
X93770000Y-18999000D03*
D19*
X88296300Y-18999000D03*
X91623700Y-18999000D03*
D16*
X111550000Y-8680000D03*
X105200000Y-11220000D03*
X112820000Y-11220000D03*
X106470000Y-8680000D03*
D17*
X105200000Y-18840000D03*
D18*
X112820000Y-18840000D03*
D17*
X105200000Y-21380000D03*
D18*
X112820000Y-21380000D03*
D19*
X107346300Y-21380000D03*
X110673700Y-21380000D03*
D16*
X130600000Y-8680000D03*
X124250000Y-11220000D03*
X131870000Y-11220000D03*
X125520000Y-8680000D03*
D17*
X124250000Y-18840000D03*
D18*
X131870000Y-18840000D03*
D17*
X124250000Y-21380000D03*
D18*
X131870000Y-21380000D03*
D19*
X126396300Y-21380000D03*
X129723700Y-21380000D03*
D16*
X11538000Y-30111000D03*
X5188000Y-32651000D03*
X12808000Y-32651000D03*
X6458000Y-30111000D03*
D17*
X5188000Y-40271000D03*
D18*
X12808000Y-40271000D03*
D17*
X5188000Y-42811000D03*
D18*
X12808000Y-42811000D03*
D19*
X7334300Y-42811000D03*
X10661700Y-42811000D03*
D16*
X35350000Y-30111000D03*
X29000000Y-32651000D03*
X36620000Y-32651000D03*
X30270000Y-30111000D03*
D17*
X29000000Y-40271000D03*
D18*
X36620000Y-40271000D03*
D17*
X29000000Y-42811000D03*
D18*
X36620000Y-42811000D03*
D19*
X31146300Y-42811000D03*
X34473700Y-42811000D03*
D16*
X54400000Y-25349000D03*
X48050000Y-27889000D03*
X55670000Y-27889000D03*
X49320000Y-25349000D03*
D17*
X48050000Y-35509000D03*
D18*
X55670000Y-35509000D03*
D17*
X48050000Y-38049000D03*
D18*
X55670000Y-38049000D03*
D19*
X50196300Y-38049000D03*
X53523700Y-38049000D03*
D16*
X73450000Y-22958000D03*
X67100000Y-25498000D03*
X74720000Y-25498000D03*
X68370000Y-22958000D03*
D17*
X67100000Y-33118000D03*
D18*
X74720000Y-33118000D03*
D17*
X67100000Y-35658000D03*
D18*
X74720000Y-35658000D03*
D19*
X69246300Y-35658000D03*
X72573700Y-35658000D03*
D16*
X92500000Y-25349000D03*
X86150000Y-27889000D03*
X93770000Y-27889000D03*
X87420000Y-25349000D03*
D17*
X86150000Y-35509000D03*
D18*
X93770000Y-35509000D03*
D17*
X86150000Y-38049000D03*
D18*
X93770000Y-38049000D03*
D19*
X88296300Y-38049000D03*
X91623700Y-38049000D03*
D16*
X111550000Y-27730000D03*
X105200000Y-30270000D03*
X112820000Y-30270000D03*
X106470000Y-27730000D03*
D17*
X105200000Y-37890000D03*
D18*
X112820000Y-37890000D03*
D17*
X105200000Y-40430000D03*
D18*
X112820000Y-40430000D03*
D19*
X107346300Y-40430000D03*
X110673700Y-40430000D03*
D16*
X11538000Y-49161000D03*
X5188000Y-51701000D03*
X12808000Y-51701000D03*
X6458000Y-49161000D03*
D17*
X5188000Y-59321000D03*
D18*
X12808000Y-59321000D03*
D17*
X5188000Y-61861000D03*
D18*
X12808000Y-61861000D03*
D19*
X7334300Y-61861000D03*
X10661700Y-61861000D03*
D16*
X35350000Y-49161000D03*
X29000000Y-51701000D03*
X36620000Y-51701000D03*
X30270000Y-49161000D03*
D17*
X29000000Y-59321000D03*
D18*
X36620000Y-59321000D03*
D17*
X29000000Y-61861000D03*
D18*
X36620000Y-61861000D03*
D19*
X31146300Y-61861000D03*
X34473700Y-61861000D03*
D16*
X54400000Y-44399000D03*
X48050000Y-46939000D03*
X55670000Y-46939000D03*
X49320000Y-44399000D03*
D17*
X48050000Y-54559000D03*
D18*
X55670000Y-54559000D03*
D17*
X48050000Y-57099000D03*
D18*
X55670000Y-57099000D03*
D19*
X50196300Y-57099000D03*
X53523700Y-57099000D03*
D16*
X73450000Y-42008000D03*
X67100000Y-44548000D03*
X74720000Y-44548000D03*
X68370000Y-42008000D03*
D17*
X67100000Y-52168000D03*
D18*
X74720000Y-52168000D03*
D17*
X67100000Y-54708000D03*
D18*
X74720000Y-54708000D03*
D19*
X69246300Y-54708000D03*
X72573700Y-54708000D03*
D16*
X92500000Y-44399000D03*
X86150000Y-46939000D03*
X93770000Y-46939000D03*
X87420000Y-44399000D03*
D17*
X86150000Y-54559000D03*
D18*
X93770000Y-54559000D03*
D17*
X86150000Y-57099000D03*
D18*
X93770000Y-57099000D03*
D19*
X88296300Y-57099000D03*
X91623700Y-57099000D03*
D16*
X111641000Y-46780000D03*
X105291000Y-49320000D03*
X112911000Y-49320000D03*
X106561000Y-46780000D03*
D17*
X105291000Y-56940000D03*
D18*
X112911000Y-56940000D03*
D17*
X105291000Y-59480000D03*
D18*
X112911000Y-59480000D03*
D19*
X107437300Y-59480000D03*
X110764700Y-59480000D03*
D16*
X130600000Y-32493000D03*
X124250000Y-35033000D03*
X131870000Y-35033000D03*
X125520000Y-32493000D03*
D17*
X124250000Y-42653000D03*
D18*
X131870000Y-42653000D03*
D17*
X124250000Y-45193000D03*
D18*
X131870000Y-45193000D03*
D19*
X126396300Y-45193000D03*
X129723700Y-45193000D03*
D16*
X11538000Y-68211000D03*
X5188000Y-70751000D03*
X12808000Y-70751000D03*
X6458000Y-68211000D03*
D17*
X5188000Y-78371000D03*
D18*
X12808000Y-78371000D03*
D17*
X5188000Y-80911000D03*
D18*
X12808000Y-80911000D03*
D19*
X7334300Y-80911000D03*
X10661700Y-80911000D03*
D16*
X35350000Y-68211000D03*
X29000000Y-70751000D03*
X36620000Y-70751000D03*
X30270000Y-68211000D03*
D17*
X29000000Y-78371000D03*
D18*
X36620000Y-78371000D03*
D17*
X29000000Y-80911000D03*
D18*
X36620000Y-80911000D03*
D19*
X31146300Y-80911000D03*
X34473700Y-80911000D03*
D16*
X54400000Y-63449000D03*
X48050000Y-65989000D03*
X55670000Y-65989000D03*
X49320000Y-63449000D03*
D17*
X48050000Y-73609000D03*
D18*
X55670000Y-73609000D03*
D17*
X48050000Y-76149000D03*
D18*
X55670000Y-76149000D03*
D19*
X50196300Y-76149000D03*
X53523700Y-76149000D03*
D16*
X73450000Y-61058000D03*
X67100000Y-63598000D03*
X74720000Y-63598000D03*
X68370000Y-61058000D03*
D17*
X67100000Y-71218000D03*
D18*
X74720000Y-71218000D03*
D17*
X67100000Y-73758000D03*
D18*
X74720000Y-73758000D03*
D19*
X69246300Y-73758000D03*
X72573700Y-73758000D03*
D16*
X92500000Y-63449000D03*
X86150000Y-65989000D03*
X93770000Y-65989000D03*
X87420000Y-63449000D03*
D17*
X86150000Y-73609000D03*
D18*
X93770000Y-73609000D03*
D17*
X86150000Y-76149000D03*
D18*
X93770000Y-76149000D03*
D19*
X88296300Y-76149000D03*
X91623700Y-76149000D03*
D16*
X111550000Y-65830000D03*
X105200000Y-68370000D03*
X112820000Y-68370000D03*
X106470000Y-65830000D03*
D17*
X105200000Y-75990000D03*
D18*
X112820000Y-75990000D03*
D17*
X105200000Y-78530000D03*
D18*
X112820000Y-78530000D03*
D19*
X107346300Y-78530000D03*
X110673700Y-78530000D03*
D16*
X130600000Y-61068000D03*
X124250000Y-63608000D03*
X131870000Y-63608000D03*
X125520000Y-61068000D03*
D17*
X124250000Y-71228000D03*
D18*
X131870000Y-71228000D03*
D17*
X124250000Y-73768000D03*
D18*
X131870000Y-73768000D03*
D19*
X126396300Y-73768000D03*
X129723700Y-73768000D03*
D16*
X114129591Y-96955295D03*
X113154295Y-103724557D03*
X116964295Y-97125443D03*
X111589591Y-101354705D03*
D17*
X119753409Y-107534557D03*
D10*
G36*
X123938768Y-102336302D02*
X122162550Y-101310802D01*
X123188050Y-99534584D01*
X124964268Y-100560084D01*
X123938768Y-102336302D01*
X123938768Y-102336302D01*
G37*
D17*
X121953114Y-108804557D03*
D10*
G36*
X126138473Y-103606302D02*
X124362255Y-102580802D01*
X125387755Y-100804584D01*
X127163973Y-101830084D01*
X126138473Y-103606302D01*
X126138473Y-103606302D01*
G37*
G36*
X123252870Y-107791512D02*
X122180558Y-107172412D01*
X122799658Y-106100100D01*
X123871970Y-106719200D01*
X123252870Y-107791512D01*
X123252870Y-107791512D01*
G37*
G36*
X124916570Y-104909900D02*
X123844258Y-104290800D01*
X124463358Y-103218488D01*
X125535670Y-103837588D01*
X124916570Y-104909900D01*
X124916570Y-104909900D01*
G37*
D16*
X130627591Y-106480295D03*
X129652295Y-113249557D03*
X133462295Y-106650443D03*
X128087591Y-110879705D03*
D17*
X136251409Y-117059557D03*
D10*
G36*
X140436768Y-111861302D02*
X138660550Y-110835802D01*
X139686050Y-109059584D01*
X141462268Y-110085084D01*
X140436768Y-111861302D01*
X140436768Y-111861302D01*
G37*
D17*
X138451114Y-118329557D03*
D10*
G36*
X142636473Y-113131302D02*
X140860255Y-112105802D01*
X141885755Y-110329584D01*
X143661973Y-111355084D01*
X142636473Y-113131302D01*
X142636473Y-113131302D01*
G37*
G36*
X139750870Y-117316512D02*
X138678558Y-116697412D01*
X139297658Y-115625100D01*
X140369970Y-116244200D01*
X139750870Y-117316512D01*
X139750870Y-117316512D01*
G37*
G36*
X141414570Y-114434900D02*
X140342258Y-113815800D01*
X140961358Y-112743488D01*
X142033670Y-113362588D01*
X141414570Y-114434900D01*
X141414570Y-114434900D01*
G37*
D20*
X127095000Y-49530000D03*
X123095000Y-49530000D03*
D21*
X118745000Y-2445000D03*
X118745000Y-6445000D03*
X80645000Y-2445000D03*
X80645000Y-6445000D03*
D10*
G36*
X121864327Y-116326281D02*
X120045673Y-115276281D01*
X121245673Y-113197821D01*
X123064327Y-114247821D01*
X121864327Y-116326281D01*
X121864327Y-116326281D01*
G37*
G36*
X123864327Y-112862179D02*
X122045673Y-111812179D01*
X123245673Y-109733719D01*
X125064327Y-110783719D01*
X123864327Y-112862179D01*
X123864327Y-112862179D01*
G37*
D21*
X19685000Y-23590000D03*
X19685000Y-19590000D03*
X20320000Y-75025000D03*
X20320000Y-71025000D03*
D10*
G36*
X60904327Y-87116281D02*
X59085673Y-86066281D01*
X60285673Y-83987821D01*
X62104327Y-85037821D01*
X60904327Y-87116281D01*
X60904327Y-87116281D01*
G37*
G36*
X62904327Y-83652179D02*
X61085673Y-82602179D01*
X62285673Y-80523719D01*
X64104327Y-81573719D01*
X62904327Y-83652179D01*
X62904327Y-83652179D01*
G37*
D22*
X21600200Y-5168900D03*
X20800100Y-3421380D03*
X20000000Y-5168900D03*
X19199900Y-3421380D03*
X18399800Y-5168900D03*
D23*
X16352560Y154940D03*
X23647440Y154940D03*
D24*
X73830148Y-76880591D03*
X72560148Y-79080295D03*
X71290148Y-81280000D03*
X70020148Y-83479705D03*
X68750148Y-85679409D03*
M02*
