<?xml version="1.0" standalone="no"?>
 <!DOCTYPE svg PUBLIC "-//W3C//DTD SVG 1.1//EN" 
 "http://www.w3.org/Graphics/SVG/1.1/DTD/svg11.dtd"> 
<svg xmlns="http://www.w3.org/2000/svg" version="1.1" 
    width="29.7002cm" height="21.0007cm" viewBox="0 0 116930 82680 ">
<title>SVG Picture created as Print-Microdox-Edge.Cuts.svg date 2016/07/02 20:30:20 </title>
  <desc>Picture generated by PCBNEW </desc>
<g style="fill:#000000; fill-opacity:1;stroke:#000000; stroke-opacity:1;
stroke-linecap:round; stroke-linejoin:round; "
 transform="translate(0 0) scale(1 1)">
</g>
<g style="fill:#C2C200; fill-opacity:0.0; 
stroke:#C2C200; stroke-width:-0.000393701; stroke-opacity:1; 
stroke-linecap:round; stroke-linejoin:round;">
</g>
<g style="fill:#C2C200; fill-opacity:0.0; 
stroke:#C2C200; stroke-width:59.0551; stroke-opacity:1; 
stroke-linecap:round; stroke-linejoin:round;">
<path d="M45000 10250
L85725 10250
" />
<path d="M42888 10250
L45000 10250
" />
<path d="M33734 10250
L38359 10250
" />
<path d="M42888 9550
L42888 10250
" />
<path d="M38359 9550
L42888 9550
" />
<path d="M38359 9550
L38359 10250
" />
<path d="M86099 62524
L84753 62887
" />
<path d="M92744 49045
L93106 50392
" />
<path d="M32750 41662
L33734 42647
" />
<path d="M85725 10250
L86706 11234
" />
<path d="M32750 11234
L33734 10250
" />
<path d="M86706 45560
L86706 11234
" />
<path d="M92744 49045
L86706 45560
" />
<path d="M86099 62524
L93106 50392
" />
<path d="M49699 42647
L84753 62887
" />
<path d="M33734 42647
L49699 42647
" />
<path d="M32750 11234
L32750 41662
" />
</g> 
</svg>
